<?xml version="1.0" encoding="utf-8"?>
<!-- Generator: Adobe Illustrator 26.0.2, SVG Export Plug-In . SVG Version: 6.00 Build 0)  -->
<svg version="1.1" xmlns="http://www.w3.org/2000/svg" xmlns:xlink="http://www.w3.org/1999/xlink" x="0px" y="0px"
	 viewBox="0 0 1955.4 344.1" style="enable-background:new 0 0 1955.4 344.1;" xml:space="preserve">
<style type="text/css">
	.st0{fill:#6DBE45;}
	.st1{fill:none;stroke:#3A7F59;stroke-miterlimit:10;}
	.st2{fill:#6DBE45;stroke:#3A7F59;stroke-miterlimit:10;}
	.st3{fill:#C1B76F;}
	.st4{fill:none;stroke:#726141;stroke-miterlimit:10;}
	.st5{fill:#37631B;}
	.st6{fill:none;stroke:#16512F;stroke-miterlimit:10;}
	.st7{display:none;}
	.st8{display:inline;}
	.st9{fill:#84A59B;stroke:#000000;stroke-miterlimit:10;}
	.st10{opacity:0.5;fill:#FFFFFF;enable-background:new    ;}
	.st11{fill:#50766B;stroke:#000000;stroke-miterlimit:10;}
	.st12{fill:#322800;stroke:#000000;stroke-miterlimit:10;}
	.st13{fill:none;stroke:#000000;stroke-linecap:round;stroke-linejoin:round;}
</style>
<g id="Tribal_Grounds">
	<g id="Ground">
		<g id="grass-row-back-2">
			<g id="Grass-Row">
				<path class="st0" d="M1949.8,6.6c-4.6-0.5-7.9-2.7-12.6-1c2.2,1.7-4.7,6.2-7.8,2c-3.2-4.2-12.9-2.3-12.9-2.3
					c3.3,0.9,3.9,1.6,2.5,4c-1.5,0.1-9-2.6-14.8-2.1c0.9,1.1-1.6,2.5-1.6,2.5s-3.1-1.7-1.6-4.4c-2.6-0.2-5.2,0.4-7.5,1.7
					c0,0-2.2-3.5,3.1-5.9c-7.1-2.5-13.6,7-13.6,7c-0.9-2.8-9-6.2-14.9-5.6c5.1,6.4-25.7,3.4-25.7,3.4c0.1-1.9,1.3-3.7,3-4.5
					c0,0-13-1.6-23.8,3.3c-3.4,1.5-8.1,1-11.5-0.8c-2.7-1.4-11.7-3.8-18.9-3.4c6.9,2.9,8.2,4.9,8.2,4.9s-29,3.6-23.9-2.8
					c-5.9-0.6-14,2.8-14.9,5.6c0,0-6.5-9.5-13.6-7c5.3,2.4,3.1,5.9,3.1,5.9c-2.3-1.3-4.9-1.9-7.5-1.7c1.5,2.7-1.6,4.4-1.6,4.4
					s-2.5-1.4-1.6-2.5c-5.8-0.5-13.3,2.2-14.8,2.1c-1.4-2.4-0.7-3.1,2.5-4c0,0-9.7-1.9-12.9,2.3s-10-0.3-7.8-2
					c-4.7-1.7-8,0.6-12.6,1s-5.8-2-13.1-0.6c-7.3,1.3-7.2,1.3-8.9,1.4s-12.2-0.9-6-5.3c0,0-6.3-1.6-13.8,2.7
					c-3.2,1.8-8.1,1-11.5-0.8c-2.6-1.4-11.7-3.8-18.9-3.4c6.9,2.9,8.2,4.9,8.2,4.9s-29,3.6-23.9-2.8c-5.9-0.6-14,2.8-14.9,5.6
					c0,0-6.5-9.5-13.6-7c5.3,2.4,3.1,5.9,3.1,5.9c-2.3-1.3-4.9-1.9-7.4-1.7c1.4,2.7-1.6,4.4-1.6,4.4s-2.5-1.4-1.6-2.5
					c-5.8-0.5-13.3,2.2-14.8,2.1c-1.4-2.4-0.7-3.1,2.5-4c0,0-9.7-1.9-12.9,2.3s-10-0.3-7.8-2c-4.7-1.7-8,0.6-12.6,1
					c-4.6,0.4-4.7,0.9-12,2.4c-4.2,0.9-6.6-2.1-10-2.9c-1.6,3.8-5.7,3.7-8.9,3.1c-7.3-1.4-6.1,0.4-12-1.5c-4.5-1.4-7.6-3.7-12.3-2
					c2.2,1.7-4.7,6.2-7.8,2c-3.2-4.2-12.9-2.3-12.9-2.3c3.3,0.9,3.9,1.6,2.5,4c-1.4,0.1-9-2.6-14.8-2.1c1,1.1-1.6,2.5-1.6,2.5
					s-3.1-1.7-1.6-4.4c-2.6-0.2-5.2,0.4-7.4,1.7c0,0-2.2-3.5,3.1-5.9c-7.1-2.5-13.6,7-13.6,7c-0.9-2.8-9-6.2-14.9-5.6
					c5.1,6.4-23.9,2.8-23.9,2.8s1.3-1.9,8.2-4.9c-7.2-0.4-16.3,2-18.9,3.4c-3.4,1.8-8.3,2.7-11.5,0.8c-7.4-4.3-13.8-2.7-13.8-2.7
					c6.3,4.4-4.3,5.4-6,5.3s-1.6,0-8.8-1.4c-7.3-1.4-8.4,1.1-13.1,0.6c-4.7-0.5-7.9-2.7-12.6-1c2.2,1.7-4.7,6.2-7.8,2
					c-3.1-4.2-12.9-2.3-12.9-2.3c3.3,0.9,3.9,1.6,2.5,4c-1.5,0.1-9-2.6-14.8-2.1c0.9,1.1-1.6,2.5-1.6,2.5s-3.1-1.7-1.6-4.4
					c-2.6-0.2-5.2,0.4-7.5,1.7c0,0-2.2-3.5,3.1-5.9c-7.1-2.5-13.6,7-13.6,7c-0.9-2.8-9-6.2-14.9-5.6c3.6,4.5-8.1,4.7-16.3,4
					c0,0-1.6-3.5,1.4-5.1c0,0-13-1.6-23.8,3.3c-3.4,1.5-8.1,1-11.5-0.8c-2.7-1.4-11.7-3.8-18.9-3.4c6.9,2.9,8.2,4.9,8.2,4.9
					s-29,3.6-23.9-2.8c-5.9-0.6-14,2.8-14.9,5.6c0,0-6.5-9.5-13.6-7c5.3,2.4,3.1,5.9,3.1,5.9c-2.3-1.3-4.9-1.9-7.4-1.7
					c1.4,2.7-1.6,4.4-1.6,4.4s-2.5-1.4-1.6-2.5c-5.8-0.5-13.3,2.2-14.8,2.1c-1.4-2.4-0.7-3.1,2.5-4c0,0-9.7-1.9-12.9,2.3
					s-10-0.3-7.8-2c-4.7-1.7-8,0.6-12.6,1s-5.8-2-13.1-0.6c-7.3,1.3-7.2,1.3-8.9,1.4s-12.2-0.9-6-5.3c0,0-6.3-1.6-13.8,2.7
					c-3.2,1.8-8.1,1-11.5-0.8c-2.6-1.4-11.7-3.8-18.9-3.4c6.9,2.9,8.2,4.9,8.2,4.9s-29,3.6-23.9-2.8c-5.9-0.6-14,2.8-14.9,5.6
					c0,0-6.5-9.5-13.6-7c5.3,2.4,3.1,5.9,3.1,5.9c-2.3-1.3-4.9-1.9-7.4-1.7c1.4,2.7-1.7,4.4-1.7,4.4s-2.6-1.4-1.6-2.5
					c-5.8-0.5-13.3,2.2-14.8,2.1c-1.4-2.4-0.7-3.1,2.5-4c0,0-9.7-1.9-12.9,2.3s-10-0.3-7.8-2c-4.7-1.7-8,0.6-12.6,1
					c-4.6,0.4-4.7,0.9-12,2.4c-4.2,0.9-6.6-2.1-10-2.9c-1.6,3.8-5.7,3.7-8.9,3.1c-7.2-1.4-6.1,0.4-12-1.5c-4.5-1.4-7.6-3.7-12.3-2
					c2.2,1.7-4.7,6.2-7.8,2c-3.2-4.2-12.9-2.3-12.9-2.3c3.3,0.9,3.9,1.6,2.5,4c-1.4,0.1-9-2.6-14.8-2.1c1,1.1-1.6,2.5-1.6,2.5
					s-3.1-1.7-1.6-4.4c-2.6-0.2-5.2,0.4-7.4,1.7c0,0-2.2-3.5,3.1-5.9c-7.1-2.5-13.6,7-13.6,7c-0.9-2.8-9-6.2-14.9-5.6
					c5.1,6.4-23.9,2.8-23.9,2.8s1.3-1.9,8.2-4.9c-7.2-0.4-16.3,2-18.9,3.4c-3.4,1.8-8.3,2.7-11.5,0.8c-7.4-4.3-13.8-2.7-13.8-2.7
					c6.3,4.4-4.3,5.4-6,5.3s-1.6,0-8.8-1.4c-7.3-1.4-8.5,1.1-13.1,0.6c-4.6-0.5-7.9-2.7-12.6-1c2.2,1.7-4.7,6.2-7.8,2
					s-12.9-2.3-12.9-2.3c3.3,0.9,3.9,1.6,2.5,4c-1.5,0.1-9-2.6-14.8-2.1c0.9,1.1-1.6,2.5-1.6,2.5s-3.1-1.7-1.6-4.4
					c-2.6-0.2-5.2,0.4-7.5,1.7c0,0-2.2-3.5,3.1-5.9c-7.1-2.5-13.6,7-13.6,7c-0.9-2.8-9-6.2-14.9-5.6C606.3,9,575.5,6,575.5,6
					c0.1-1.9,1.3-3.7,3-4.5c0,0-13-1.6-23.8,3.3c-3.3,1.5-8.1,1-11.5-0.8c-2.7-1.4-11.7-3.8-18.9-3.4c6.9,2.9,8.2,4.9,8.2,4.9
					s-29,3.6-23.9-2.8c-5.9-0.6-14,2.8-14.9,5.6c0,0-6.5-9.5-13.6-7c5.3,2.4,3.1,5.9,3.1,5.9c-2.3-1.3-4.9-1.9-7.5-1.7
					c1.4,2.7-1.6,4.4-1.6,4.4s-2.6-1.4-1.6-2.5c-5.8-0.5-13.3,2.2-14.8,2.1c-1.4-2.4-0.7-3.1,2.5-4c0,0-9.8-2-13,2.2
					c-3.1,4.2-10-0.3-7.8-2c-4.7-1.7-8,0.6-12.6,1c-4.7,0.4-5.8-2-13.1-0.6c-7.3,1.3-7.2,1.3-8.8,1.4c-1.7,0.1-12.3-0.9-6-5.3
					c0,0-6.3-1.6-13.8,2.7c-3.2,1.8-8.1,1-11.5-0.8C371,2.6,362,0.1,354.7,0.6c6.9,2.9,8.2,4.9,8.2,4.9s-29,3.6-23.9-2.8
					c-5.9-0.6-14,2.8-14.9,5.6c0,0-6.5-9.5-13.6-7c5.3,2.4,3.1,5.9,3.1,5.9c-2.3-1.3-4.9-1.9-7.5-1.7c1.5,2.7-1.6,4.4-1.6,4.4
					S302,8.5,303,7.4c-5.8-0.5-13.3,2.2-14.8,2.1c-1.4-2.4-0.7-3.1,2.5-4c0,0-9.7-1.9-12.9,2.3s-10-0.3-7.8-2
					c-4.7-1.7-7.9,0.6-12.6,1c-4.7,0.4-4.8,0.9-12,2.4c-4.2,0.9-6.6-2.1-10-2.9c-1.6,3.8-5.7,3.7-8.9,3.1c-7.2-1.4-6.1,0.4-12-1.5
					c-4.5-1.4-7.6-3.7-12.3-2c2.2,1.7-4.7,6.2-7.8,2c-3.2-4.2-12.9-2.3-12.9-2.3c3.3,0.9,3.9,1.6,2.5,4c-1.4,0.1-9-2.6-14.8-2.1
					c1,1.1-1.6,2.5-1.6,2.5s-3.1-1.7-1.6-4.4c-2.6-0.2-5.2,0.4-7.4,1.7c0,0-2.2-3.5,3.1-5.9c-7.1-2.5-13.6,7-13.6,7
					c-0.9-2.8-9-6.2-14.9-5.6c5.1,6.4-23.9,2.8-23.9,2.8s1.3-1.9,8.2-4.9c-7.2-0.4-16.3,2-18.9,3.4C95.1,5.9,90.2,6.7,87,4.9
					c-7.4-4.3-13.8-2.7-13.8-2.7c6.3,4.4-4.3,5.4-6,5.3c-1.7-0.1-1.6,0-8.8-1.4S50,7.3,45.3,6.8c-4.6-0.5-7.9-2.7-12.6-1
					c2.2,1.7-4.7,6.2-7.8,2C21.7,3.6,12,5.5,12,5.5c3.3,0.9,3.9,1.6,2.5,4C13.1,9.5,5.8,7,0,7.4V85h1955.4V7.4
					C1953.6,7.8,1952.1,6.9,1949.8,6.6z"/>
				<path class="st1" d="M1955.4,7.4c-1.7,0-3.3-0.5-5.6-0.8c-4.6-0.5-7.9-2.7-12.6-1c2.2,1.7-4.7,6.2-7.8,2
					c-3.2-4.2-12.9-2.3-12.9-2.3c3.3,0.9,3.9,1.6,2.5,4c-1.5,0.1-9-2.6-14.8-2.1c0.9,1.1-1.6,2.5-1.6,2.5s-3.1-1.7-1.6-4.4
					c-2.6-0.2-5.2,0.4-7.5,1.7c0,0-2.2-3.5,3.1-5.9c-7.1-2.5-13.6,7-13.6,7c-0.9-2.8-9-6.2-14.9-5.6c5.1,6.4-25.7,3.4-25.7,3.4
					c0.1-1.9,1.3-3.7,3-4.5c0,0-13-1.6-23.8,3.3c-3.4,1.5-8.1,1-11.5-0.8c-2.7-1.4-11.7-3.8-18.9-3.4c6.9,2.9,8.2,4.9,8.2,4.9
					s-29,3.6-23.9-2.8c-5.9-0.6-14,2.8-14.9,5.6c0,0-6.5-9.5-13.6-7c5.3,2.4,3.1,5.9,3.1,5.9c-2.3-1.3-4.9-1.9-7.5-1.7
					c1.5,2.7-1.6,4.4-1.6,4.4s-2.5-1.4-1.6-2.5c-5.8-0.5-13.3,2.2-14.8,2.1c-1.4-2.4-0.7-3.1,2.5-4c0,0-9.7-1.9-12.9,2.3
					s-10-0.3-7.8-2c-4.7-1.7-8,0.6-12.6,1s-5.8-2-13.1-0.6c-7.3,1.3-7.2,1.3-8.9,1.4s-12.2-0.9-6-5.3c0,0-6.3-1.6-13.8,2.7
					c-3.2,1.8-8.1,1-11.5-0.8c-2.6-1.4-11.7-3.8-18.9-3.4c6.9,2.9,8.2,4.9,8.2,4.9s-29,3.6-23.9-2.8c-5.9-0.6-14,2.8-14.9,5.6
					c0,0-6.5-9.5-13.6-7c5.3,2.4,3.1,5.9,3.1,5.9c-2.3-1.3-4.9-1.9-7.4-1.7c1.4,2.7-1.6,4.4-1.6,4.4s-2.5-1.4-1.6-2.5
					c-5.8-0.5-13.3,2.2-14.8,2.1c-1.4-2.4-0.7-3.1,2.5-4c0,0-9.7-1.9-12.9,2.3s-10-0.3-7.8-2c-4.7-1.7-8,0.6-12.6,1
					c-4.6,0.4-4.7,0.9-12,2.4c-4.2,0.9-6.6-2.1-10-2.9c-1.6,3.8-5.7,3.7-8.9,3.1c-7.3-1.4-6.1,0.4-12-1.5c-4.5-1.4-7.6-3.7-12.3-2
					c2.2,1.7-4.7,6.2-7.8,2c-3.2-4.2-12.9-2.3-12.9-2.3c3.3,0.9,3.9,1.6,2.5,4c-1.4,0.1-9-2.6-14.8-2.1c1,1.1-1.6,2.5-1.6,2.5
					s-3.1-1.7-1.6-4.4c-2.6-0.2-5.2,0.4-7.4,1.7c0,0-2.2-3.5,3.1-5.9c-7.1-2.5-13.6,7-13.6,7c-0.9-2.8-9-6.2-14.9-5.6
					c5.1,6.4-23.9,2.8-23.9,2.8s1.3-1.9,8.2-4.9c-7.2-0.4-16.3,2-18.9,3.4c-3.4,1.8-8.3,2.7-11.5,0.8c-7.4-4.3-13.8-2.7-13.8-2.7
					c6.3,4.4-4.3,5.4-6,5.3s-1.6,0-8.8-1.4c-7.3-1.4-8.4,1.1-13.1,0.6c-4.7-0.5-7.9-2.7-12.6-1c2.2,1.7-4.7,6.2-7.8,2
					c-3.1-4.2-12.9-2.3-12.9-2.3c3.3,0.9,3.9,1.6,2.5,4c-1.5,0.1-9-2.6-14.8-2.1c0.9,1.1-1.6,2.5-1.6,2.5s-3.1-1.7-1.6-4.4
					c-2.6-0.2-5.2,0.4-7.5,1.7c0,0-2.2-3.5,3.1-5.9c-7.1-2.5-13.6,7-13.6,7c-0.9-2.8-9-6.2-14.9-5.6c3.6,4.5-8.1,4.7-16.3,4
					c0,0-1.6-3.5,1.4-5.1c0,0-13-1.6-23.8,3.3c-3.4,1.5-8.1,1-11.5-0.8c-2.7-1.4-11.7-3.8-18.9-3.4c6.9,2.9,8.2,4.9,8.2,4.9
					s-29,3.6-23.9-2.8c-5.9-0.6-14,2.8-14.9,5.6c0,0-6.5-9.5-13.6-7c5.3,2.4,3.1,5.9,3.1,5.9c-2.3-1.3-4.9-1.9-7.4-1.7
					c1.4,2.7-1.6,4.4-1.6,4.4s-2.5-1.4-1.6-2.5c-5.8-0.5-13.3,2.2-14.8,2.1c-1.4-2.4-0.7-3.1,2.5-4c0,0-9.7-1.9-12.9,2.3
					s-10-0.3-7.8-2c-4.7-1.7-8,0.6-12.6,1s-5.8-2-13.1-0.6c-7.3,1.3-7.2,1.3-8.9,1.4s-12.2-0.9-6-5.3c0,0-6.3-1.6-13.8,2.7
					c-3.2,1.8-8.1,1-11.5-0.8c-2.6-1.4-11.7-3.8-18.9-3.4c6.9,2.9,8.2,4.9,8.2,4.9s-29,3.6-23.9-2.8c-5.9-0.6-14,2.8-14.9,5.6
					c0,0-6.5-9.5-13.6-7c5.3,2.4,3.1,5.9,3.1,5.9c-2.3-1.3-4.9-1.9-7.4-1.7c1.4,2.7-1.7,4.4-1.7,4.4s-2.6-1.4-1.6-2.5
					c-5.8-0.5-13.3,2.2-14.8,2.1c-1.4-2.4-0.7-3.1,2.5-4c0,0-9.7-1.9-12.9,2.3s-10-0.3-7.8-2c-4.7-1.7-8,0.6-12.6,1
					c-4.6,0.4-4.7,0.9-12,2.4c-4.2,0.9-6.6-2.1-10-2.9c-1.6,3.8-5.7,3.7-8.9,3.1c-7.2-1.4-6.1,0.4-12-1.5c-4.5-1.4-7.6-3.7-12.3-2
					c2.2,1.7-4.7,6.2-7.8,2c-3.2-4.2-12.9-2.3-12.9-2.3c3.3,0.9,3.9,1.6,2.5,4c-1.4,0.1-9-2.6-14.8-2.1c1,1.1-1.6,2.5-1.6,2.5
					s-3.1-1.7-1.6-4.4c-2.6-0.2-5.2,0.4-7.4,1.7c0,0-2.2-3.5,3.1-5.9c-7.1-2.5-13.6,7-13.6,7c-0.9-2.8-9-6.2-14.9-5.6
					c5.1,6.4-23.9,2.8-23.9,2.8s1.3-1.9,8.2-4.9c-7.2-0.4-16.3,2-18.9,3.4c-3.4,1.8-8.3,2.7-11.5,0.8c-7.4-4.3-13.8-2.7-13.8-2.7
					c6.3,4.4-4.3,5.4-6,5.3s-1.6,0-8.8-1.4c-7.3-1.4-8.5,1.1-13.1,0.6c-4.6-0.5-7.9-2.7-12.6-1c2.2,1.7-4.7,6.2-7.8,2
					s-12.9-2.3-12.9-2.3c3.3,0.9,3.9,1.6,2.5,4c-1.5,0.1-9-2.6-14.8-2.1c0.9,1.1-1.6,2.5-1.6,2.5s-3.1-1.7-1.6-4.4
					c-2.6-0.2-5.2,0.4-7.5,1.7c0,0-2.2-3.5,3.1-5.9c-7.1-2.5-13.6,7-13.6,7c-0.9-2.8-9-6.2-14.9-5.6C606.3,9,575.5,6,575.5,6
					c0.1-1.9,1.3-3.7,3-4.5c0,0-13-1.6-23.8,3.3c-3.3,1.5-8.1,1-11.5-0.8c-2.7-1.4-11.7-3.8-18.9-3.4c6.9,2.9,8.2,4.9,8.2,4.9
					s-29,3.6-23.9-2.8c-5.9-0.6-14,2.8-14.9,5.6c0,0-6.5-9.5-13.6-7c5.3,2.4,3.1,5.9,3.1,5.9c-2.3-1.3-4.9-1.9-7.5-1.7
					c1.4,2.7-1.6,4.4-1.6,4.4s-2.6-1.4-1.6-2.5c-5.8-0.5-13.3,2.2-14.8,2.1c-1.4-2.4-0.7-3.1,2.5-4c0,0-9.8-2-13,2.2
					c-3.1,4.2-10-0.3-7.8-2c-4.7-1.7-8,0.6-12.6,1c-4.7,0.4-5.8-2-13.1-0.6c-7.3,1.3-7.2,1.3-8.8,1.4c-1.7,0.1-12.3-0.9-6-5.3
					c0,0-6.3-1.6-13.8,2.7c-3.2,1.8-8.1,1-11.5-0.8C371,2.6,362,0.1,354.7,0.6c6.9,2.9,8.2,4.9,8.2,4.9s-29,3.6-23.9-2.8
					c-5.9-0.6-14,2.8-14.9,5.6c0,0-6.5-9.5-13.6-7c5.3,2.4,3.1,5.9,3.1,5.9c-2.3-1.3-4.9-1.9-7.5-1.7c1.5,2.7-1.6,4.4-1.6,4.4
					S302,8.5,303,7.4c-5.8-0.5-13.3,2.2-14.8,2.1c-1.4-2.4-0.7-3.1,2.5-4c0,0-9.7-1.9-12.9,2.3s-10-0.3-7.8-2
					c-4.7-1.7-7.9,0.6-12.6,1c-4.7,0.4-4.8,0.9-12,2.4c-4.2,0.9-6.6-2.1-10-2.9c-1.6,3.8-5.7,3.7-8.9,3.1c-7.2-1.4-6.1,0.4-12-1.5
					c-4.5-1.4-7.6-3.7-12.3-2c2.2,1.7-4.7,6.2-7.8,2c-3.2-4.2-12.9-2.3-12.9-2.3c3.3,0.9,3.9,1.6,2.5,4c-1.4,0.1-9-2.6-14.8-2.1
					c1,1.1-1.6,2.5-1.6,2.5s-3.1-1.7-1.6-4.4c-2.6-0.2-5.2,0.4-7.4,1.7c0,0-2.2-3.5,3.1-5.9c-7.1-2.5-13.6,7-13.6,7
					c-0.9-2.8-9-6.2-14.9-5.6c5.1,6.4-23.9,2.8-23.9,2.8s1.3-1.9,8.2-4.9c-7.2-0.4-16.3,2-18.9,3.4C95.1,5.9,90.2,6.7,87,4.9
					c-7.4-4.3-13.8-2.7-13.8-2.7c6.3,4.4-4.3,5.4-6,5.3c-1.7-0.1-1.6,0-8.8-1.4S50,7.3,45.3,6.8c-4.6-0.5-7.9-2.7-12.6-1
					c2.2,1.7-4.7,6.2-7.8,2C21.7,3.6,12,5.5,12,5.5c3.3,0.9,3.9,1.6,2.5,4C13.1,9.5,5.7,7.4,0,7.4"/>
				<path class="st1" d="M1955.4,6"/>
				<line class="st1" x1="0" y1="85" x2="1955.4" y2="85"/>
			</g>
		</g>
		<g id="grass-row-back-1">
			<path class="st2" d="M1955.4,13.2c-2.8,0-5.9-2.9-8.8-1.6c-3.4,1.5-8.1,1-11.5-0.8c-2.7-1.4-11.7-3.8-18.9-3.4
				c6.9,3,8.2,4.9,8.2,4.9s-29,3.6-23.9-2.8c-5.9-0.6-14,2.8-14.9,5.6c0,0-6.5-9.5-13.6-7c5.3,2.4,3.1,5.9,3.1,5.9
				c-2.3-1.3-4.9-1.9-7.4-1.7c1.4,2.7-1.6,4.4-1.6,4.4s-2.5-1.4-1.6-2.5c-5.8-0.5-13.3,2.2-14.8,2.1c-1.4-2.4-0.7-3.1,2.5-4
				c0,0-9.7-1.9-12.9,2.3c-3.2,4.2-10-0.3-7.8-2c-4.7-1.7-8,0.5-12.6,1c-4.6,0.5-5.8-2-13.1-0.6c-7.3,1.4-7.1,1.3-8.8,1.4
				s-12.3-0.9-6-5.3c0,0-6.3-1.6-13.8,2.7c-3.2,1.8-8.1,1-11.5-0.8c-2.7-1.4-11.7-3.8-18.9-3.4c6.9,3,8.2,4.9,8.2,4.9
				s-29,3.6-23.9-2.8c-5.9-0.6-14,2.8-14.9,5.6c0,0-6.5-9.5-13.6-7c5.3,2.4,3.1,5.9,3.1,5.9c-2.3-1.3-4.9-1.9-7.5-1.7
				c1.5,2.7-1.6,4.4-1.6,4.4s-2.5-1.4-1.6-2.5c-5.8-0.5-13.3,2.2-14.8,2.1c-1.4-2.4-0.7-3.1,2.5-4c0,0-9.7-1.9-12.9,2.3
				c-3.2,4.2-10-0.3-7.8-2c-4.7-1.7-7.8,0.6-12.3,2c-5.9,1.9-4.7,0.2-12,1.5c-3.2,0.6-7.3,0.6-8.9-3.1c-3.4,0.8-5.8,3.8-10,2.9
				c-7.2-1.5-7.4-2-12-2.4c-4.6-0.4-7.9-2.7-12.6-1c2.1,1.7-4.7,6.2-7.8,2s-12.9-2.3-12.9-2.3c3.3,0.9,3.9,1.6,2.5,4
				c-1.5,0.1-9-2.6-14.8-2.1c1,1.1-1.6,2.5-1.6,2.5s-3.1-1.7-1.6-4.4c-2.6-0.2-5.2,0.4-7.5,1.7c0,0-2.2-3.5,3.1-5.9
				c-7.1-2.5-13.6,7-13.6,7c-0.8-2.8-9-6.2-14.9-5.6c5.1,6.5-23.9,2.8-23.9,2.8s1.3-2,8.2-4.9c-7.2-0.4-16.3,2-18.9,3.4
				c-3.4,1.8-8.3,2.7-11.5,0.8c-7.4-4.3-13.8-2.7-13.8-2.7c6.3,4.4-4.3,5.4-6,5.3s-1.6-0.1-8.8-1.4c-7.3-1.3-8.4,1.1-13.1,0.6
				s-7.9-2.7-12.6-1c2.1,1.7-4.7,6.2-7.8,2s-12.9-2.3-12.9-2.3c3.3,0.9,3.9,1.6,2.5,4c-1.4,0.1-9-2.6-14.8-2.1
				c1,1.1-1.6,2.5-1.6,2.5s-3.1-1.7-1.6-4.4c-2.6-0.2-5.2,0.4-7.4,1.7c0,0-2.2-3.5,3.1-5.9c-7.1-2.5-13.6,7-13.6,7
				c-0.9-2.8-9-6.2-14.9-5.6c5.1,6.5-23.9,2.8-23.9,2.8s1.3-2,8.2-4.9c-7.2-0.4-16.3,2-18.9,3.4c-3.4,1.8-8.2,2.3-11.5,0.8
				c-10.8-4.9-23.8-3.3-23.8-3.3c1.7,0.9,2.9,2.6,3,4.5c0,0-30.8,3-25.7-3.4c-5.9-0.6-14,2.8-14.9,5.6c0,0-6.5-9.5-13.6-7
				c5.3,2.4,3.1,5.9,3.1,5.9c-2.3-1.3-4.9-1.9-7.4-1.7c1.4,2.7-1.6,4.4-1.6,4.4s-2.5-1.4-1.6-2.5c-5.8-0.5-13.3,2.2-14.8,2.1
				c-1.4-2.4-0.7-3.1,2.5-4c0,0-9.7-1.9-12.9,2.3c-3.2,4.2-10-0.3-7.8-2c-4.7-1.7-8,0.5-12.6,1c-4.6,0.5-5.8-2-13.1-0.6
				c-7.3,1.4-7.1,1.3-8.8,1.4s-12.3-0.9-6-5.3c0,0-6.4-1.6-13.8,2.7c-3.2,1.8-8.1,1-11.5-0.8c-2.7-1.4-11.7-3.8-18.9-3.4
				c6.9,3,8.2,4.9,8.2,4.9s-29,3.6-23.9-2.8c-5.9-0.6-14,2.8-14.9,5.6c0,0-6.5-9.5-13.6-7c5.3,2.4,3.1,5.9,3.1,5.9
				c-2.3-1.3-4.9-1.9-7.5-1.7c1.5,2.7-1.6,4.4-1.6,4.4s-2.5-1.4-1.6-2.5c-5.8-0.5-13.3,2.2-14.8,2.1c-1.4-2.4-0.7-3.1,2.5-4
				c0,0-9.7-1.9-12.9,2.3c-3.1,4.2-10-0.3-7.8-2c-4.7-1.7-7.8,0.6-12.3,2c-5.9,1.9-4.7,0.2-12,1.5c-3.2,0.6-7.3,0.6-8.9-3.1
				c-3.4,0.8-5.8,3.8-10,2.9c-7.2-1.5-7.4-2-12-2.4s-7.9-2.7-12.6-1c2.1,1.7-4.7,6.2-7.8,2c-3.1-4.2-12.9-2.3-12.9-2.3
				c3.3,0.9,3.9,1.6,2.5,4c-1.5,0.1-9-2.6-14.8-2.1c0.9,1.1-1.6,2.5-1.6,2.5s-3.1-1.7-1.6-4.4c-2.6-0.2-5.2,0.4-7.5,1.7
				c0,0-2.2-3.5,3.1-5.9c-7.1-2.5-13.6,7-13.6,7c-0.8-2.8-9-6.2-14.9-5.6c5.1,6.5-23.9,2.8-23.9,2.8s1.3-2,8.2-4.9
				c-7.2-0.4-16.3,2-18.9,3.4c-3.4,1.8-8.3,2.7-11.5,0.8C834.2,7.3,827.8,9,827.8,9c6.3,4.4-4.3,5.4-6,5.3c-1.7-0.1-1.5-0.1-8.8-1.4
				s-8.4,1.1-13.1,0.6s-7.9-2.7-12.6-1c2.2,1.7-4.7,6.2-7.8,2c-3.2-4.2-13.1-2.2-13.1-2.2c3.3,0.9,3.9,1.6,2.5,4
				c-1.4,0.1-9-2.6-14.8-2.1c1,1.1-1.6,2.5-1.6,2.5s-3.1-1.7-1.6-4.4c-2.6-0.2-5.2,0.4-7.4,1.7c0,0-2.2-3.5,3.1-5.9
				c-7.1-2.5-13.6,7-13.6,7c-0.9-2.8-9-6.2-14.9-5.6c5.1,6.5-23.9,2.8-23.9,2.8s1.3-2,8.2-4.9c-7.2-0.4-16.3,2-18.9,3.4
				c-3.4,1.8-8.2,2.3-11.5,0.8c-10.8-4.9-23.8-3.3-23.8-3.3c3,1.6,1.4,5.1,1.4,5.1c-8.2,0.7-19.9,0.5-16.3-4
				c-5.9-0.6-14,2.8-14.9,5.6c0,0-6.5-9.5-13.6-7c5.3,2.4,3.1,5.9,3.1,5.9c-2.3-1.3-4.9-1.9-7.5-1.7c1.5,2.7-1.6,4.4-1.6,4.4
				s-2.5-1.4-1.6-2.5c-5.8-0.5-13.3,2.2-14.8,2.1c-1.4-2.4-0.7-3.1,2.5-4c0,0-9.7-1.9-12.9,2.3c-3.2,4.2-10-0.3-7.8-2
				c-4.7-1.7-8,0.5-12.6,1s-5.8-2-13.1-0.6s-7.1,1.3-8.8,1.4c-1.7,0.1-12.3-0.9-6-5.3c0,0-6.3-1.6-13.8,2.7c-3.2,1.8-8.1,1-11.5-0.8
				c-2.7-1.4-11.7-3.8-18.9-3.4c6.9,3,8.2,4.9,8.2,4.9s-29,3.6-23.9-2.8c-5.9-0.6-14,2.8-14.9,5.6c0,0-6.5-9.5-13.6-7
				c5.3,2.4,3.1,5.9,3.1,5.9c-2.3-1.3-4.9-1.9-7.5-1.7c1.5,2.7-1.6,4.4-1.6,4.4s-2.5-1.4-1.6-2.5c-5.8-0.5-13.3,2.2-14.8,2.1
				c-1.4-2.4-0.7-3.1,2.5-4c0,0-9.7-1.9-12.9,2.3c-3.1,4.2-10-0.3-7.8-2c-4.7-1.7-7.8,0.6-12.3,2c-5.9,1.9-4.7,0.2-12,1.5
				c-3.2,0.6-7.3,0.6-8.9-3.1c-3.4,0.8-5.8,3.8-10,2.9c-7.2-1.5-7.4-2-12-2.4s-7.9-2.7-12.6-1c2.1,1.7-4.7,6.2-7.8,2
				c-3.2-4.2-12.9-2.3-12.9-2.3c3.3,0.9,3.9,1.6,2.5,4c-1.5,0.1-9-2.6-14.8-2.1c0.9,1.1-1.6,2.5-1.6,2.5s-3.1-1.7-1.6-4.4
				c-2.6-0.2-5.2,0.4-7.5,1.7c0,0-2.2-3.5,3.1-5.9c-7.1-2.5-13.6,7-13.6,7c-0.9-2.8-9-6.2-14.9-5.6c5.1,6.5-23.9,2.8-23.9,2.8
				s1.3-2,8.2-4.9c-7.2-0.4-16.3,2-18.9,3.4c-3.4,1.8-8.3,2.7-11.5,0.8C204.3,7.4,198,9,198,9c6.2,4.4-4.3,5.4-6,5.3
				s-1.5-0.1-8.8-1.4c-7.3-1.3-8.4,1.1-13.1,0.6s-7.9-2.7-12.6-1c2.2,1.7-4.7,6.2-7.8,2c-3.2-4.2-12.9-2.3-12.9-2.3
				c3.3,0.9,3.9,1.6,2.5,4c-1.5,0.1-9-2.6-14.8-2.1c1,1.1-1.6,2.5-1.6,2.5s-3.1-1.7-1.6-4.4c-2.6-0.2-5.2,0.4-7.5,1.7
				c0,0-2.2-3.5,3.1-5.9c-7.1-2.5-13.6,7-13.6,7c-0.8-2.8-9-6.2-14.9-5.6c5.1,6.5-23.9,2.8-23.9,2.8s1.3-2,8.2-4.9
				c-7.2-0.4-16.3,2-18.9,3.4c-3.4,1.8-8.1,2.3-11.5,0.8c-11-4.9-24-3.3-24-3.3c1.7,0.9,2.8,3.2,2.9,5.1c0,0-15.7-0.1-21.2-0.3"/>
			<path class="st2" d="M1955.4,9"/>
			<line class="st2" x1="0" y1="92.1" x2="1955.4" y2="92.1"/>
		</g>
		<g id="ground">
			<path class="st3" d="M1953.3,24.3l-17.8-1.1c-9,0-9,0.5-18,0.5s-9,0.9-18,0.9s-9-1.1-18-1.1s-9-0.2-18.1-0.2s-9,0.8-18,0.8
				s-9-0.8-18-0.8s-9,0.3-18,0.3s-9,0.6-18,0.6s-9,0.4-18.1,0.4s-9-0.9-18-0.9s-9,0.1-18,0.1s-9,0-18,0s-9,0.2-18,0.2s-9,0.5-18,0.5
				s-9-0.7-18.1-0.7s-9,0.1-18,0.1s-9-0.2-18-0.2s-9-0.3-18-0.3s-9,0.9-18,0.9s-9-0.3-18.1-0.3s-9-0.5-18-0.5s-9-0.1-18-0.1
				s-9,0.2-18,0.2s-9-0.7-18-0.7s-9,1-18.1,1s-9-0.5-18-0.5s-9,0.8-18,0.8s-9,0.5-18,0.5s-9-1.3-18-1.3s-9-0.1-18.1-0.1
				s-9,1.3-18,1.3s-9-0.2-18-0.2s-9-0.7-18-0.7s-9,0.8-18,0.8s-9-1-18.1-1s-9,1.3-18,1.3s-9-1.9-18-1.9s-9,0.5-18,0.5s-9,0.3-18,0.3
				s-9-0.1-18.1-0.1s-9,0.8-18,0.8s-9-1.1-18-1.1s-9,1.3-18,1.3h-18c-9,0-9-0.5-18.1-0.5s-9-1-18-1s-9,0.6-18,0.6s-9-0.3-18-0.3
				s-9-0.4-18-0.4s-9,1.1-18.1,1.1s-9,0-18,0s-9-0.2-18-0.2s-9-1.1-18-1.1s-9,0.3-18,0.3c-9.1,0-9,0.6-18,0.6s-9,0.9-18,0.9
				s-9-1.7-18.1-1.7s-9,0.7-18,0.7s-9,0.7-18.1,0.7c-9,0-9-0.8-18-0.8s-9,0.7-18,0.7s-11.6,0.3-20.6,0.3s-9-1.7-18-1.7
				s-9,0.5-18,0.5s-9,1.1-18,1.1s-9-0.3-18-0.3s-9,0.6-18,0.6s-9-0.2-18-0.2s-9-0.1-18-0.1c-9.1,0-9-0.1-18-0.1s-9-1.2-18-1.2
				s-9,0.4-18.1,0.4s-9-0.3-18-0.3s-9,0.6-18,0.6s-9-0.5-18.1-0.5c-9,0-9,1-18,1s-9-0.1-18-0.1s-9-1.1-18-1.1s-9,0.7-18,0.7
				c-9.1,0-9,0.7-18.1,0.7s-9-1-18.1-1c-9.1,0-9,1.2-18,1.2s-9-0.7-18-0.7s-9-0.2-18-0.2c-9.1,0-9-0.4-18.1-0.4c-9,0-9-0.2-18-0.2
				s-9-0.2-18.1-0.2s-9,1.6-18,1.6s-9-0.8-18-0.8s-9,0.7-18,0.7s-9-0.5-18-0.5s-9,0.5-18.1,0.5s-9-1.2-18-1.2s-9-0.5-18-0.5
				s-9,1.2-18.1,1.2s-9-1.2-18-1.2s-9,0.7-18,0.7c-9.1,0-9,0.3-18.1,0.3c-9,0-9,0.7-18.1,0.7s-9-0.4-18-0.4s-9-1.3-18-1.3
				s-9,1.6-18.1,1.6s-9-1.1-18.1-1.1s-9,1.4-18,1.4s-9-1.1-18.1-1.1s-9,1.1-18.1,1.1H4c-1.5,0-2.8-0.2-4-0.5v59.3
				c1.2-0.3,2.5-0.5,4-0.5c9,0,9,1.4,18,1.4s9-1.1,18-1.1c9.1,0,9,1.3,18,1.3s9-1.1,18-1.1s9-0.1,18-0.1s9,1.2,18,1.2s9-0.1,18-0.1
				c9,0,9,0.2,18.1,0.2s9-1.2,18-1.2s9,1.3,18,1.3s9-1.4,18-1.4s9,0.2,18,0.2s9,0.7,18,0.7s9,0.7,18,0.7s9-1.8,18-1.8s9,0.1,18,0.1
				s9,1,18,1s9,0.1,18,0.1s9,0.2,18,0.2s9-1.4,18-1.4s9,1.1,18,1.1s9-0.3,18-0.3c9,0,9,0.1,18,0.1s9-0.8,18-0.8
				c9.1,0,9-0.1,18.1-0.1s9-0.1,18.1-0.1c9,0,9,0.1,18,0.1s9,1.5,18,1.5s9-0.6,18-0.6s9-0.5,18-0.5c9.1,0,9-0.2,18-0.2s9,0.7,18,0.7
				s9,0.8,18,0.8s9-0.5,18-0.5s9,0.3,18.1,0.3s9,0,18,0s9-0.7,18.1-0.7c9,0,9-0.5,18-0.5s9,0.5,18,0.5s9-1.1,18-1.1s9,0.1,18,0.1
				s9,1.3,18,1.3s9-0.4,18-0.4s9-0.9,18-0.9s9,1.4,18,1.4c9.1,0,9,0.1,18,0.1s9-1.4,18-1.4s9,0.2,18.1,0.2s9-0.4,18-0.4
				s9,1.2,18.1,1.2c9,0,9-0.3,18-0.3s9,0.9,18,0.9s9-0.8,18-0.8s9,0.5,18,0.5s9-0.5,18-0.5s9,0.5,18,0.5s9-0.7,18-0.7
				c9.1,0,9,0.2,18,0.2s9,0.1,18.1,0.1s9-0.9,18-0.9s9,0.8,18,0.8s9-0.9,18.1-0.9s9,1.6,18,1.6s9-1.2,18.1-1.2s9,1.1,18,1.1
				s9-0.1,18.1-0.1s9-1.3,18-1.3s9,0.5,18,0.5s9,0.6,18,0.6s9-0.8,18-0.8s9,0.5,18.1,0.5s9,0.5,18,0.5s9-0.7,18-0.7s9,0.5,18,0.5
				s9-0.1,18-0.1s9-0.6,18-0.6s9-0.6,18.1-0.6s9,1.6,18,1.6s9-1.2,18-1.2s9,0.5,18,0.5s9-1,18-1s9,0.1,18.1,0.1s9,1.5,18,1.5
				s9-1,18-1s9-0.3,18-0.3s9,0.5,18,0.5s9,0.7,18.1,0.7s9-0.8,18-0.8s9,0.2,18.1,0.2s9,0.5,18,0.5s9-0.6,18-0.6s9-0.3,18.1-0.3
				s9,0,18,0s9,0,18.1,0s9,1,18,1s9-0.6,18.1-0.6s9,0.1,18,0.1s9,0.9,18.1,0.9s9-0.8,18-0.8s9,0.5,18.1,0.5s9-0.1,18.1-0.1
				s9-0.3,18-0.3s9,0.2,18,0.2s9,0.1,18.1,0.1s9-0.5,18-0.5s9-0.5,18.1-0.5s9,0,18.1,0s9-0.3,18-0.3c2.2,0,3.9,0.1,5.3,0.1V24.3
				C1954.8,24.3,1954,24.3,1953.3,24.3z"/>
			<path class="st4" d="M1955.4,24.3c-1.2,0-11.4,0.1-14.3-0.4c-2.2-0.4-2.9-0.7-5.5-0.8s-9,0.5-18,0.5s-9,0.9-18,0.9s-9-1.1-18-1.1
				s-9-0.2-18.1-0.2s-9,0.8-18,0.8s-9-0.8-18-0.8s-9,0.3-18,0.3s-9,0.6-18,0.6s-9,0.4-18.1,0.4s-9-0.9-18-0.9s-9,0.1-18,0.1
				s-9,0-18,0s-9,0.2-18,0.2s-9,0.5-18,0.5s-9-0.7-18.1-0.7s-9,0.1-18,0.1s-9-0.2-18-0.2s-9-0.3-18-0.3s-9,0.9-18,0.9
				s-9-0.3-18.1-0.3s-9-0.5-18-0.5s-9-0.1-18-0.1s-9,0.2-18,0.2s-9-0.7-18-0.7s-9,1-18.1,1s-9-0.5-18-0.5s-9,0.8-18,0.8
				s-9,0.5-18,0.5s-9-1.3-18-1.3s-9-0.1-18.1-0.1s-9,1.3-18,1.3s-9-0.2-18-0.2s-9-0.7-18-0.7s-9,0.8-18,0.8s-9-1-18.1-1
				s-9,1.3-18,1.3s-9-1.9-18-1.9s-9,0.5-18,0.5s-9,0.3-18,0.3s-9-0.1-18.1-0.1s-9,0.8-18,0.8s-9-1.1-18-1.1s-9,1.3-18,1.3h-18
				c-9,0-9-0.5-18.1-0.5s-9-1-18-1s-9,0.6-18,0.6s-9-0.3-18-0.3s-9-0.4-18-0.4s-9,1.1-18.1,1.1s-9,0-18,0s-9-0.2-18-0.2
				s-9-1.1-18-1.1s-9,0.3-18,0.3c-9.1,0-9,0.6-18,0.6s-9,0.9-18,0.9s-9-1.7-18.1-1.7s-9,0.7-18,0.7s-9,0.7-18.1,0.7
				c-9,0-9-0.8-18-0.8s-9,0.7-18,0.7s-11.6,0.3-20.6,0.3s-9-1.7-18-1.7s-9,0.5-18,0.5s-9,1.1-18,1.1s-9-0.3-18-0.3s-9,0.6-18,0.6
				s-9-0.2-18-0.2s-9-0.1-18-0.1c-9.1,0-9-0.1-18-0.1s-9-1.2-18-1.2s-9,0.4-18.1,0.4s-9-0.3-18-0.3s-9,0.6-18,0.6s-9-0.5-18.1-0.5
				c-9,0-9,1-18,1s-9-0.1-18-0.1s-9-1.1-18-1.1s-9,0.7-18,0.7c-9.1,0-9,0.7-18.1,0.7s-9-1-18.1-1c-9.1,0-9,1.2-18,1.2s-9-0.7-18-0.7
				s-9-0.2-18-0.2c-9.1,0-9-0.4-18.1-0.4c-9,0-9-0.2-18-0.2s-9-0.2-18.1-0.2s-9,1.6-18,1.6s-9-0.8-18-0.8s-9,0.7-18,0.7
				s-9-0.5-18-0.5s-9,0.5-18.1,0.5s-9-1.2-18-1.2s-9-0.5-18-0.5s-9,1.2-18.1,1.2s-9-1.2-18-1.2s-9,0.7-18,0.7c-9.1,0-9,0.3-18.1,0.3
				c-9,0-9,0.7-18.1,0.7s-9-0.4-18-0.4s-9-1.3-18-1.3s-9,1.6-18.1,1.6s-9-1.1-18.1-1.1s-9,1.4-18,1.4s-9-1.1-18.1-1.1
				s-9,1.1-18.1,1.1H4c-1.5,0-2.8-0.5-4-0.5"/>
			<path class="st4" d="M0,83.6c1.2,0,2.5-0.5,4-0.5c9,0,9,1.4,18,1.4s9-1.1,18-1.1c9.1,0,9,1.3,18,1.3s9-1.1,18-1.1s9-0.1,18-0.1
				s9,1.2,18,1.2s9-0.1,18-0.1c9,0,9,0.2,18.1,0.2s9-1.2,18-1.2s9,1.3,18,1.3s9-1.4,18-1.4s9,0.2,18,0.2s9,0.7,18,0.7s9,0.7,18,0.7
				s9-1.8,18-1.8s9,0.1,18,0.1s9,1,18,1s9,0.1,18,0.1s9,0.2,18,0.2s9-1.4,18-1.4s9,1.1,18,1.1s9-0.3,18-0.3c9,0,9,0.1,18,0.1
				s9-0.8,18-0.8c9.1,0,9-0.1,18.1-0.1s9-0.1,18.1-0.1c9,0,9,0.1,18,0.1s9,1.5,18,1.5s9-0.6,18-0.6s9-0.5,18-0.5c9.1,0,9-0.2,18-0.2
				s9,0.7,18,0.7s9,0.8,18,0.8s9-0.5,18-0.5s9,0.3,18.1,0.3s9,0,18,0s9-0.7,18.1-0.7c9,0,9-0.5,18-0.5s9,0.5,18,0.5s9-1.1,18-1.1
				s9,0.1,18,0.1s9,1.3,18,1.3s9-0.4,18-0.4s9-0.9,18-0.9s9,1.4,18,1.4c9.1,0,9,0.1,18,0.1s9-1.4,18-1.4s9,0.2,18.1,0.2
				s9-0.4,18-0.4s9,1.2,18.1,1.2c9,0,9-0.3,18-0.3s9,0.9,18,0.9s9-0.8,18-0.8s9,0.5,18,0.5s9-0.5,18-0.5s9,0.5,18,0.5s9-0.7,18-0.7
				c9.1,0,9,0.2,18,0.2s9,0.1,18.1,0.1s9-0.9,18-0.9s9,0.8,18,0.8s9-0.9,18.1-0.9s9,1.6,18,1.6s9-1.2,18.1-1.2s9,1.1,18,1.1
				s9-0.1,18.1-0.1s9-1.3,18-1.3s9,0.5,18,0.5s9,0.6,18,0.6s9-0.8,18-0.8s9,0.5,18.1,0.5s9,0.5,18,0.5s9-0.7,18-0.7s9,0.5,18,0.5
				s9-0.1,18-0.1s9-0.6,18-0.6s9-0.6,18.1-0.6s9,1.6,18,1.6s9-1.2,18-1.2s9,0.5,18,0.5s9-1,18-1s9,0.1,18.1,0.1s9,1.5,18,1.5
				s9-1,18-1s9-0.3,18-0.3s9,0.5,18,0.5s9,0.7,18.1,0.7s9-0.8,18-0.8s9,0.2,18.1,0.2s9,0.5,18,0.5s9-0.6,18-0.6s9-0.3,18.1-0.3
				s9,0,18,0s9,0,18.1,0s9,1,18,1s9-0.6,18.1-0.6s9,0.1,18,0.1s9,0.9,18.1,0.9s9-0.8,18-0.8s9,0.5,18.1,0.5s9-0.1,18.1-0.1
				s9-0.3,18-0.3s9,0.2,18,0.2s9,0.1,18.1,0.1s9-0.5,18-0.5s9-0.5,18.1-0.5s9,0,18.1,0s9-0.3,18-0.3c2.2,0,3.9,0.2,5.3,0.1"/>
		</g>
		<path id="grass-row-front-2_00000033364183194553639010000004660238105708365187_" class="st0" d="M0,322.7h1955.4V74.6
			c0-1.5,0-1.7,0-2.3l0,0c-3.1-0.3-8.2-2-10.3,0.8c-3.2,4.2-10-0.3-7.8-2c-4.7-1.7-8,0.6-12.6,1c-4.6,0.4-4.7,0.9-12,2.4
			c-4.2,0.9-6.6-2.1-10-2.9c-1.6,3.8-5.7,3.7-8.9,3.1c-7.2-1.4-6.1,0.4-12-1.5c-4.5-1.4-7.6-3.7-12.3-2c2.2,1.7-4.7,6.2-7.8,2
			c-3.2-4.2-12.9-2.3-12.9-2.3c3.3,0.9,3.9,1.6,2.5,4c-1.4,0.1-9-2.6-14.8-2.1c1,1.1-1.6,2.5-1.6,2.5s-3.1-1.7-1.6-4.4
			c-2.6-0.2-5.2,0.4-7.4,1.7c0,0-2.2-3.5,3.1-5.9c-7.1-2.5-13.6,7-13.6,7c-0.9-2.8-9-6.2-14.9-5.6c5.1,6.4-23.9,2.8-23.9,2.8
			s1.3-1.9,8.2-4.9c-7.2-0.4-16.3,2-18.9,3.4c-3.4,1.8-8.3,2.7-11.5,0.8c-7.4-4.3-13.8-2.7-13.8-2.7c6.3,4.4-4.3,5.4-6,5.3
			s-1.6-0.1-8.8-1.4c-7.3-1.4-8.5,1.1-13.1,0.6c-4.6-0.5-7.9-2.7-12.6-1c2.2,1.7-4.7,6.2-7.8,2c-3.2-4.2-12.9-2.3-12.9-2.3
			c3.3,0.9,3.9,1.6,2.5,4c-1.5,0.1-9-2.6-14.8-2.1c0.9,1.1-1.6,2.5-1.6,2.5s-3.1-1.7-1.6-4.4c-2.6-0.2-5.2,0.4-7.4,1.7
			c0,0-2.2-3.5,3.1-5.9c-7.1-2.5-13.6,7-13.6,7c-0.9-2.8-9-6.2-14.9-5.6c5.1,6.4-25.7,3.4-25.7,3.4c0.1-1.9,1.3-3.7,3-4.5
			c0,0-13-1.6-23.8,3.3c-3.3,1.5-8.1,1-11.5-0.8c-2.6-1.4-11.7-3.8-18.9-3.4c6.9,2.9,8.2,4.9,8.2,4.9s-29,3.6-23.9-2.8
			c-5.9-0.6-14,2.8-14.9,5.6c0,0-6.5-9.5-13.6-7c5.3,2.4,3.1,5.9,3.1,5.9c-2.3-1.3-4.9-1.9-7.4-1.7c1.4,2.7-1.6,4.4-1.6,4.4
			s-2.5-1.4-1.6-2.5c-5.8-0.5-13.3,2.2-14.8,2.1c-1.4-2.4-0.7-3.1,2.5-4c0,0-9.7-1.9-12.9,2.3s-10-0.3-7.8-2c-4.7-1.7-8,0.6-12.6,1
			s-5.8-2-13.1-0.6c-7.3,1.3-7.1,1.3-8.8,1.4s-12.2-0.9-6-5.3c0,0-6.4-1.6-13.8,2.7c-3.2,1.8-8.1,1-11.5-0.8
			c-2.7-1.4-11.7-3.8-18.9-3.4c6.9,2.9,8.2,4.9,8.2,4.9s-29,3.6-23.9-2.8c-5.9-0.6-14,2.8-14.9,5.6c0,0-6.5-9.5-13.6-7
			c5.3,2.4,3.1,5.9,3.1,5.9c-2.3-1.3-4.9-1.9-7.4-1.7c1.4,2.7-1.7,4.4-1.7,4.4s-2.5-1.4-1.6-2.5c-5.8-0.5-13.3,2.2-14.8,2.1
			c-1.4-2.4-0.7-3.1,2.5-4c0,0-9.7-1.9-12.9,2.3s-10-0.3-7.8-2c-4.7-1.7-8,0.6-12.6,1c-4.6,0.4-4.7,0.9-12,2.4
			c-4.2,0.9-6.6-2.1-10-2.9c-1.6,3.8-5.7,3.7-8.9,3.1c-7.2-1.4-6.1,0.4-12-1.5c-4.5-1.4-7.6-3.7-12.3-2c2.2,1.7-4.7,6.2-7.8,2
			c-3.2-4.2-12.9-2.3-12.9-2.3c3.3,0.9,3.9,1.6,2.5,4c-1.5,0.1-9-2.6-14.8-2.1c0.9,1.1-1.6,2.5-1.6,2.5s-3.1-1.7-1.6-4.4
			c-2.6-0.2-5.2,0.4-7.4,1.7c0,0-2.2-3.5,3.1-5.9c-7.1-2.5-13.6,7-13.6,7c-0.9-2.8-9-6.2-14.9-5.6c5.1,6.4-23.9,2.8-23.9,2.8
			s1.3-1.9,8.2-4.9c-7.2-0.4-16.3,2-18.9,3.4c-3.4,1.8-8.3,2.7-11.5,0.8c-7.4-4.3-13.8-2.7-13.8-2.7c6.3,4.4-4.3,5.4-6,5.3
			s-1.6-0.1-8.8-1.4c-7.3-1.4-8.5,1.1-13.1,0.6c-4.6-0.5-7.9-2.7-12.6-1c2.2,1.7-4.7,6.2-7.8,2c-3.2-4.2-12.9-2.3-12.9-2.3
			c3.3,0.9,3.9,1.6,2.5,4c-1.5,0.1-9-2.6-14.8-2.1c0.9,1.1-1.6,2.5-1.6,2.5s-3.1-1.7-1.6-4.4c-2.6-0.2-5.2,0.4-7.5,1.7
			c0,0-2.2-3.5,3.1-5.9c-7.1-2.5-13.6,7-13.6,7c-0.9-2.8-9-6.2-14.9-5.6c3.6,4.5-8.1,4.7-16.3,4c0,0-1.6-3.5,1.4-5.1
			c0,0-13-1.6-23.8,3.3c-3.3,1.5-8.1,1-11.5-0.8c-2.7-1.4-11.7-3.8-18.9-3.4c6.9,2.9,8.2,4.9,8.2,4.9s-29,3.6-23.9-2.8
			c-5.9-0.6-14,2.8-14.9,5.6c0,0-6.5-9.5-13.6-7c5.3,2.4,3.1,5.9,3.1,5.9c-2.3-1.3-4.9-1.9-7.5-1.7c1.5,2.7-1.6,4.4-1.6,4.4
			s-2.6-1.4-1.6-2.5c-5.8-0.5-13.3,2.2-14.8,2.1c-1.4-2.4-0.7-3.1,2.5-4c0,0-9.7-1.9-12.9,2.3c-3.2,4.2-10-0.3-7.8-2
			c-4.7-1.7-8,0.6-12.6,1s-5.8-2-13.1-0.6s-7.1,1.3-8.8,1.4c-1.7,0.1-12.2-0.9-6-5.3c0,0-6.3-1.6-13.8,2.7c-3.2,1.8-8.1,1-11.5-0.8
			c-2.6-1.4-11.7-3.8-18.9-3.4c6.9,2.9,8.2,4.9,8.2,4.9s-29,3.6-23.9-2.8c-5.9-0.6-14,2.8-14.9,5.6c0,0-6.5-9.5-13.6-7
			c5.3,2.4,3.1,5.9,3.1,5.9c-2.3-1.3-4.9-1.9-7.4-1.7c1.4,2.7-1.7,4.4-1.7,4.4s-2.5-1.4-1.6-2.5c-5.8-0.5-13.3,2.2-14.8,2.1
			c-1.4-2.4-0.7-3.1,2.5-4c0,0-9.7-1.9-12.9,2.3s-10-0.3-7.8-2c-4.7-1.7-8,0.6-12.6,1c-4.6,0.4-4.8,0.9-12,2.4
			c-4.2,0.9-6.6-2.1-10-2.9c-1.6,3.8-5.7,3.7-8.9,3.1c-7.3-1.4-6.1,0.4-12-1.5c-4.5-1.4-7.6-3.7-12.3-2c2.2,1.7-4.7,6.2-7.8,2
			S581.7,71,581.7,71c3.3,0.9,3.9,1.6,2.5,4c-1.5,0.1-9-2.6-14.8-2.1c1,1.1-1.6,2.5-1.6,2.5s-3.1-1.7-1.6-4.4
			c-2.6-0.2-5.2,0.4-7.4,1.7c0,0-2.2-3.5,3.1-5.9c-7.1-2.5-13.6,7-13.6,7c-0.9-2.8-9-6.2-14.9-5.6c5.1,6.4-23.9,2.8-23.9,2.8
			s1.3-1.9,8.2-4.9c-7.2-0.4-16.3,2-18.9,3.4c-3.4,1.8-8.3,2.7-11.5,0.8c-7.4-4.3-13.8-2.7-13.8-2.7c6.3,4.4-4.3,5.4-6,5.3
			s-1.5-0.1-8.8-1.4c-7.3-1.4-8.5,1.1-13.1,0.6s-7.9-2.7-12.6-1c2.2,1.7-4.7,6.2-7.8,2c-3.2-4.2-12.9-2.3-12.9-2.3
			c3.3,0.9,3.9,1.6,2.5,4c-1.4,0.1-9-2.6-14.8-2.1c0.9,1.1-1.6,2.5-1.6,2.5s-3.1-1.7-1.7-4.4c-2.6-0.2-5.2,0.4-7.5,1.7
			c0,0-2.2-3.5,3.1-5.9c-7.1-2.5-13.6,7-13.6,7c-0.9-2.8-9-6.2-14.9-5.6c5.1,6.4-25.7,3.4-25.7,3.4c0.1-1.9,1.3-3.7,3-4.5
			c0,0-13-1.6-24,3.1c-3.4,1.5-8.1,1-11.5-0.8c-2.7-1.4-11.7-3.8-18.9-3.4c6.9,2.9,8.2,4.9,8.2,4.9s-29,3.6-23.9-2.8
			c-5.9-0.6-14,2.8-14.9,5.6c0,0-6.5-9.5-13.6-7c5.3,2.4,3.1,5.9,3.1,5.9c-2.3-1.3-4.9-1.9-7.5-1.7c1.5,2.7-1.6,4.4-1.6,4.4
			s-2.6-1.4-1.6-2.5c-5.8-0.5-13.3,2.2-14.8,2.1c-1.4-2.4-0.7-3.1,2.5-4c0,0-9.7-1.9-12.9,2.3c-3.2,4.2-10-0.3-7.8-2
			c-4.7-1.7-8,0.6-12.6,1c-4.7,0.4-5.8-2-13.1-0.6s-7.1,1.3-8.8,1.4c-1.7,0.1-12.2-0.9-6-5.3c0,0-6.4-1.6-13.8,2.7
			c-3.2,1.8-8.1,1-11.5-0.8c-2.7-1.4-11.7-3.8-18.9-3.4c6.9,2.9,8.2,4.9,8.2,4.9s-29,3.6-23.9-2.8c-5.9-0.6-14,2.8-14.9,5.6
			c0,0-6.5-9.5-13.6-7c5.3,2.4,3.1,5.9,3.1,5.9c-2.3-1.3-4.9-1.9-7.5-1.7c1.5,2.7-1.7,4.4-1.7,4.4s-2.5-1.4-1.6-2.5
			c-5.8-0.5-13.3,2.2-14.8,2.1c-1.4-2.4-0.7-3.1,2.5-4c0,0-9.7-1.9-12.9,2.3c-3.2,4.2-10-0.3-7.8-2c-4.7-1.7-8,0.6-12.6,1
			s-4.7,0.9-12,2.4c-3.4,0.7-5.6-2.2-8.1-2.2"/>
		<path id="grass-row-front-2_00000057868838621985319970000013715191246296616889_" class="st1" d="M1955.4,72.3
			c-3.1,0-8.2-2-10.3,0.8c-3.2,4.2-10-0.3-7.8-2c-4.7-1.7-8,0.6-12.6,1c-4.6,0.4-4.7,0.9-12,2.4c-4.2,0.9-6.6-2.1-10-2.9
			c-1.6,3.8-5.7,3.7-8.9,3.1c-7.2-1.4-6.1,0.4-12-1.5c-4.5-1.4-7.6-3.7-12.3-2c2.2,1.7-4.7,6.2-7.8,2c-3.2-4.2-12.9-2.3-12.9-2.3
			c3.3,0.9,3.9,1.6,2.5,4c-1.4,0.1-9-2.6-14.8-2.1c1,1.1-1.6,2.5-1.6,2.5s-3.1-1.7-1.6-4.4c-2.6-0.2-5.2,0.4-7.4,1.7
			c0,0-2.2-3.5,3.1-5.9c-7.1-2.5-13.6,7-13.6,7c-0.9-2.8-9-6.2-14.9-5.6c5.1,6.4-23.9,2.8-23.9,2.8s1.3-1.9,8.2-4.9
			c-7.2-0.4-16.3,2-18.9,3.4c-3.4,1.8-8.3,2.7-11.5,0.8c-7.4-4.3-13.8-2.7-13.8-2.7c6.3,4.4-4.3,5.4-6,5.3s-1.6-0.1-8.8-1.4
			c-7.3-1.4-8.5,1.1-13.1,0.6c-4.6-0.5-7.9-2.7-12.6-1c2.2,1.7-4.7,6.2-7.8,2c-3.2-4.2-12.9-2.3-12.9-2.3c3.3,0.9,3.9,1.6,2.5,4
			c-1.5,0.1-9-2.6-14.8-2.1c0.9,1.1-1.6,2.5-1.6,2.5s-3.1-1.7-1.6-4.4c-2.6-0.2-5.2,0.4-7.4,1.7c0,0-2.2-3.5,3.1-5.9
			c-7.1-2.5-13.6,7-13.6,7c-0.9-2.8-9-6.2-14.9-5.6c5.1,6.4-25.7,3.4-25.7,3.4c0.1-1.9,1.3-3.7,3-4.5c0,0-13-1.6-23.8,3.3
			c-3.3,1.5-8.1,1-11.5-0.8c-2.6-1.4-11.7-3.8-18.9-3.4c6.9,2.9,8.2,4.9,8.2,4.9s-29,3.6-23.9-2.8c-5.9-0.6-14,2.8-14.9,5.6
			c0,0-6.5-9.5-13.6-7c5.3,2.4,3.1,5.9,3.1,5.9c-2.3-1.3-4.9-1.9-7.4-1.7c1.4,2.7-1.6,4.4-1.6,4.4s-2.5-1.4-1.6-2.5
			c-5.8-0.5-13.3,2.2-14.8,2.1c-1.4-2.4-0.7-3.1,2.5-4c0,0-9.7-1.9-12.9,2.3s-10-0.3-7.8-2c-4.7-1.7-8,0.6-12.6,1s-5.8-2-13.1-0.6
			c-7.3,1.3-7.1,1.3-8.8,1.4s-12.2-0.9-6-5.3c0,0-6.4-1.6-13.8,2.7c-3.2,1.8-8.1,1-11.5-0.8c-2.7-1.4-11.7-3.8-18.9-3.4
			c6.9,2.9,8.2,4.9,8.2,4.9s-29,3.6-23.9-2.8c-5.9-0.6-14,2.8-14.9,5.6c0,0-6.5-9.5-13.6-7c5.3,2.4,3.1,5.9,3.1,5.9
			c-2.3-1.3-4.9-1.9-7.4-1.7c1.4,2.7-1.7,4.4-1.7,4.4s-2.5-1.4-1.6-2.5c-5.8-0.5-13.3,2.2-14.8,2.1c-1.4-2.4-0.7-3.1,2.5-4
			c0,0-9.7-1.9-12.9,2.3s-10-0.3-7.8-2c-4.7-1.7-8,0.6-12.6,1c-4.6,0.4-4.7,0.9-12,2.4c-4.2,0.9-6.6-2.1-10-2.9
			c-1.6,3.8-5.7,3.7-8.9,3.1c-7.2-1.4-6.1,0.4-12-1.5c-4.5-1.4-7.6-3.7-12.3-2c2.2,1.7-4.7,6.2-7.8,2c-3.2-4.2-12.9-2.3-12.9-2.3
			c3.3,0.9,3.9,1.6,2.5,4c-1.5,0.1-9-2.6-14.8-2.1c0.9,1.1-1.6,2.5-1.6,2.5s-3.1-1.7-1.6-4.4c-2.6-0.2-5.2,0.4-7.4,1.7
			c0,0-2.2-3.5,3.1-5.9c-7.1-2.5-13.6,7-13.6,7c-0.9-2.8-9-6.2-14.9-5.6c5.1,6.4-23.9,2.8-23.9,2.8s1.3-1.9,8.2-4.9
			c-7.2-0.4-16.3,2-18.9,3.4c-3.4,1.8-8.3,2.7-11.5,0.8c-7.4-4.3-13.8-2.7-13.8-2.7c6.3,4.4-4.3,5.4-6,5.3s-1.6-0.1-8.8-1.4
			c-7.3-1.4-8.5,1.1-13.1,0.6c-4.6-0.5-7.9-2.7-12.6-1c2.2,1.7-4.7,6.2-7.8,2c-3.2-4.2-12.9-2.3-12.9-2.3c3.3,0.9,3.9,1.6,2.5,4
			c-1.5,0.1-9-2.6-14.8-2.1c0.9,1.1-1.6,2.5-1.6,2.5s-3.1-1.7-1.6-4.4c-2.6-0.2-5.2,0.4-7.5,1.7c0,0-2.2-3.5,3.1-5.9
			c-7.1-2.5-13.6,7-13.6,7c-0.9-2.8-9-6.2-14.9-5.6c3.6,4.5-8.1,4.7-16.3,4c0,0-1.6-3.5,1.4-5.1c0,0-13-1.6-23.8,3.3
			c-3.3,1.5-8.1,1-11.5-0.8c-2.7-1.4-11.7-3.8-18.9-3.4c6.9,2.9,8.2,4.9,8.2,4.9s-29,3.6-23.9-2.8c-5.9-0.6-14,2.8-14.9,5.6
			c0,0-6.5-9.5-13.6-7c5.3,2.4,3.1,5.9,3.1,5.9c-2.3-1.3-4.9-1.9-7.5-1.7c1.5,2.7-1.6,4.4-1.6,4.4s-2.6-1.4-1.6-2.5
			c-5.8-0.5-13.3,2.2-14.8,2.1c-1.4-2.4-0.7-3.1,2.5-4c0,0-9.7-1.9-12.9,2.3c-3.2,4.2-10-0.3-7.8-2c-4.7-1.7-8,0.6-12.6,1
			s-5.8-2-13.1-0.6s-7.1,1.3-8.8,1.4c-1.7,0.1-12.2-0.9-6-5.3c0,0-6.3-1.6-13.8,2.7c-3.2,1.8-8.1,1-11.5-0.8
			c-2.6-1.4-11.7-3.8-18.9-3.4c6.9,2.9,8.2,4.9,8.2,4.9s-29,3.6-23.9-2.8c-5.9-0.6-14,2.8-14.9,5.6c0,0-6.5-9.5-13.6-7
			c5.3,2.4,3.1,5.9,3.1,5.9c-2.3-1.3-4.9-1.9-7.4-1.7c1.4,2.7-1.7,4.4-1.7,4.4s-2.5-1.4-1.6-2.5c-5.8-0.5-13.3,2.2-14.8,2.1
			c-1.4-2.4-0.7-3.1,2.5-4c0,0-9.7-1.9-12.9,2.3s-10-0.3-7.8-2c-4.7-1.7-8,0.6-12.6,1c-4.6,0.4-4.8,0.9-12,2.4
			c-4.2,0.9-6.6-2.1-10-2.9c-1.6,3.8-5.7,3.7-8.9,3.1c-7.3-1.4-6.1,0.4-12-1.5c-4.5-1.4-7.6-3.7-12.3-2c2.2,1.7-4.7,6.2-7.8,2
			S581.7,71,581.7,71c3.3,0.9,3.9,1.6,2.5,4c-1.5,0.1-9-2.6-14.8-2.1c1,1.1-1.6,2.5-1.6,2.5s-3.1-1.7-1.6-4.4
			c-2.6-0.2-5.2,0.4-7.4,1.7c0,0-2.2-3.5,3.1-5.9c-7.1-2.5-13.6,7-13.6,7c-0.9-2.8-9-6.2-14.9-5.6c5.1,6.4-23.9,2.8-23.9,2.8
			s1.3-1.9,8.2-4.9c-7.2-0.4-16.3,2-18.9,3.4c-3.4,1.8-8.3,2.7-11.5,0.8c-7.4-4.3-13.8-2.7-13.8-2.7c6.3,4.4-4.3,5.4-6,5.3
			s-1.5-0.1-8.8-1.4c-7.3-1.4-8.5,1.1-13.1,0.6s-7.9-2.7-12.6-1c2.2,1.7-4.7,6.2-7.8,2c-3.2-4.2-12.9-2.3-12.9-2.3
			c3.3,0.9,3.9,1.6,2.5,4c-1.4,0.1-9-2.6-14.8-2.1c0.9,1.1-1.6,2.5-1.6,2.5s-3.1-1.7-1.7-4.4c-2.6-0.2-5.2,0.4-7.5,1.7
			c0,0-2.2-3.5,3.1-5.9c-7.1-2.5-13.6,7-13.6,7c-0.9-2.8-9-6.2-14.9-5.6c5.1,6.4-25.7,3.4-25.7,3.4c0.1-1.9,1.3-3.7,3-4.5
			c0,0-13-1.6-24,3.1c-3.4,1.5-8.1,1-11.5-0.8c-2.7-1.4-11.7-3.8-18.9-3.4c6.9,2.9,8.2,4.9,8.2,4.9s-29,3.6-23.9-2.8
			c-5.9-0.6-14,2.8-14.9,5.6c0,0-6.5-9.5-13.6-7c5.3,2.4,3.1,5.9,3.1,5.9c-2.3-1.3-4.9-1.9-7.5-1.7c1.5,2.7-1.6,4.4-1.6,4.4
			s-2.6-1.4-1.6-2.5c-5.8-0.5-13.3,2.2-14.8,2.1c-1.4-2.4-0.7-3.1,2.5-4c0,0-9.7-1.9-12.9,2.3c-3.2,4.2-10-0.3-7.8-2
			c-4.7-1.7-8,0.6-12.6,1c-4.7,0.4-5.8-2-13.1-0.6s-7.1,1.3-8.8,1.4c-1.7,0.1-12.2-0.9-6-5.3c0,0-6.4-1.6-13.8,2.7
			c-3.2,1.8-8.1,1-11.5-0.8c-2.7-1.4-11.7-3.8-18.9-3.4c6.9,2.9,8.2,4.9,8.2,4.9s-29,3.6-23.9-2.8c-5.9-0.6-14,2.8-14.9,5.6
			c0,0-6.5-9.5-13.6-7c5.3,2.4,3.1,5.9,3.1,5.9c-2.3-1.3-4.9-1.9-7.5-1.7c1.5,2.7-1.7,4.4-1.7,4.4s-2.5-1.4-1.6-2.5
			c-5.8-0.5-13.3,2.2-14.8,2.1c-1.4-2.4-0.7-3.1,2.5-4c0,0-9.7-1.9-12.9,2.3c-3.2,4.2-10-0.3-7.8-2c-4.7-1.7-8,0.6-12.6,1
			s-4.7,0.9-12,2.4c-3.4,0.7-5.6-2.2-8.1-2.2"/>
		
			<line id="grass-row-front-2_00000005979315901521868790000008016028114690533823_" class="st1" x1="0" y1="322.7" x2="1955.4" y2="322.7"/>
		<path id="grass-row-front-1_00000125562126728026197890000004452831403801630644_" class="st5" d="M0,344.1h1955.4V92.9
			c-2.1,0-5.9,0.9-6.9,0.9c-1.7-0.1-1.5,0.2-8.8-1.2c-7.3-1.3-8.4,1.3-13.1,0.9s-7.9-2.7-12.6-0.9c2.1,1.7-4.7,6.2-7.8,2
			s-12.9-2.3-12.9-2.3c3.3,1,3.9,1.7,2.5,4c-1.4,0.1-9-2.6-14.8-2.1c0.9,1.1-1.6,2.5-1.6,2.5s-3.1-1.7-1.6-4.4
			c-2.6-0.1-5.2,0.4-7.4,1.7c0,0-2.2-3.5,3.1-5.9c-7.1-2.5-13.6,7-13.6,7c-0.9-2.8-9-6.2-14.9-5.6c5.1,6.4-23.9,2.8-23.9,2.8
			s1.3-2,8.2-4.9c-7.2-0.4-16.3,2-18.9,3.4c-3.4,1.8-8.2,2.3-11.5,0.8c-10.8-4.9-23.8-3.3-23.8-3.3c1.7,0.9,2.9,2.6,3,4.5
			c0,0-30.8,3-25.7-3.4c-5.9-0.6-14,2.8-14.9,5.6c0,0-6.5-9.5-13.6-7c5.3,2.4,3.1,5.9,3.1,5.9c-2.3-1.3-4.9-1.9-7.4-1.7
			c1.4,2.8-1.6,4.4-1.6,4.4s-2.5-1.4-1.6-2.5c-5.8-0.5-13.3,2.2-14.8,2.1c-1.4-2.4-0.7-3.1,2.5-4c0,0-9.7-1.9-12.9,2.3
			c-3.2,4.2-10-0.3-7.8-2c-4.7-1.7-8,0.5-12.6,0.9c-4.6,0.4-5.8-2-13.1-0.6c-7.3,1.4-7.1,1.3-8.8,1.4s-12.3-0.9-6-5.3
			c0,0-6.4-1.6-13.8,2.7c-3.2,1.8-8.1,1-11.5-0.8c-2.7-1.4-11.7-3.8-18.9-3.4c6.9,3,8.2,4.9,8.2,4.9s-29,3.6-23.9-2.8
			c-5.9-0.6-14,2.8-14.9,5.6c0,0-6.5-9.5-13.6-7c5.3,2.4,3.1,5.9,3.1,5.9c-2.3-1.3-4.9-1.9-7.4-1.7c1.4,2.8-1.7,4.4-1.7,4.4
			s-2.5-1.4-1.6-2.5c-5.8-0.5-13.3,2.2-14.8,2.1c-1.4-2.4-0.7-3.1,2.5-4c0,0-9.7-1.9-12.9,2.3c-3.2,4.2-10-0.3-7.8-2
			c-4.7-1.7-7.8,0.6-12.3,2c-5.9,1.9-4.7,0.2-12,1.5c-3.2,0.6-7.3,0.6-8.9-3.1c-3.4,0.8-5.8,3.8-10.1,2.9c-7.2-1.5-7.4-2-12-2.4
			c-4.6-0.4-7.9-2.7-12.6-0.9c2.1,1.7-4.7,6.2-7.8,2s-12.9-2.3-12.9-2.3c3.3,1,3.9,1.7,2.5,4c-1.4,0.1-9-2.6-14.8-2.1
			c1,1.1-1.6,2.5-1.6,2.5s-3.1-1.7-1.6-4.4c-2.6-0.1-5.2,0.4-7.4,1.7c0,0-2.2-3.5,3.1-5.9c-7.1-2.5-13.6,7-13.6,7
			c-0.9-2.8-9-6.2-14.9-5.6c5.1,6.4-23.9,2.8-23.9,2.8s1.3-2,8.2-4.9c-7.2-0.4-16.3,2-18.9,3.4c-3.4,1.8-8.3,2.7-11.5,0.8
			c-7.4-4.3-13.8-2.7-13.8-2.7c6.3,4.4-4.3,5.4-6,5.3s-1.5-0.1-8.8-1.4c-7.3-1.3-8.4,1.1-13.1,0.6s-7.9-2.7-12.6-0.9
			c2.2,1.7-4.7,6.2-7.8,2s-12.9-2.3-12.9-2.3c3.3,1,3.9,1.7,2.5,4c-1.4,0.1-9-2.6-14.8-2.1c0.9,1.1-1.6,2.5-1.6,2.5
			s-3.1-1.7-1.7-4.4c-2.6-0.1-5.2,0.4-7.4,1.7c0,0-2.2-3.5,3.1-5.9c-7.1-2.5-13.6,7-13.6,7c-0.8-2.8-9-6.2-14.9-5.6
			c5.1,6.4-23.9,2.8-23.9,2.8s1.3-2,8.2-4.9c-7.2-0.4-16.3,2-18.9,3.4c-3.4,1.8-8.1,2.3-11.5,0.8c-11.1-4.9-24.1-3.3-24.1-3.3
			c3,1.6,1.4,5.1,1.4,5.1c-8.2,0.7-19.9,0.5-16.3-4c-5.9-0.6-14,2.8-14.9,5.6c0,0-6.5-9.5-13.6-7c5.3,2.4,3.1,5.9,3.1,5.9
			c-2.3-1.3-4.9-1.9-7.4-1.7c1.4,2.8-1.6,4.4-1.6,4.4s-2.5-1.4-1.6-2.5c-5.8-0.5-13.3,2.2-14.8,2.1c-1.4-2.4-0.7-3.1,2.5-4
			c0,0-9.7-1.9-12.9,2.3c-3.2,4.2-10-0.3-7.8-2c-4.7-1.7-8,0.5-12.6,0.9c-4.6,0.4-5.8-2-13.1-0.6c-7.3,1.4-7.1,1.3-8.8,1.4
			s-12.3-0.9-6-5.3c0,0-6.3-1.6-13.8,2.7c-3.2,1.8-8.1,1-11.5-0.8c-2.7-1.4-11.7-3.8-18.9-3.4c6.9,3,8.2,4.9,8.2,4.9
			s-29,3.6-23.9-2.8c-5.9-0.6-14,2.8-14.9,5.6c0,0-6.5-9.5-13.6-7c5.3,2.4,3.1,5.9,3.1,5.9c-2.3-1.3-4.9-1.9-7.4-1.7
			c1.4,2.8-1.7,4.4-1.7,4.4s-2.5-1.4-1.6-2.5c-5.8-0.5-13.3,2.2-14.8,2.1c-1.4-2.4-0.7-3.1,2.5-4c0,0-9.7-1.9-12.9,2.3
			c-3.2,4.2-10-0.3-7.8-2c-4.7-1.7-7.8,0.6-12.3,2c-5.9,1.9-4.7,0.2-12,1.5c-3.2,0.6-7.3,0.6-8.9-3.1c-3.4,0.8-5.8,3.8-10,2.9
			c-7.2-1.5-7.4-2-12-2.4s-7.9-2.7-12.6-0.9c2.2,1.7-4.7,6.2-7.8,2c-3.1-4.2-13-2.3-13-2.3c3.3,1,3.9,1.7,2.5,4
			c-1.4,0.1-9-2.6-14.8-2.1c1,1.1-1.6,2.5-1.6,2.5s-3.1-1.7-1.6-4.4c-2.6-0.1-5.2,0.4-7.4,1.7c0,0-2.2-3.5,3.1-5.9
			c-7.1-2.5-13.6,7-13.6,7c-0.9-2.8-9-6.2-14.9-5.6c5.1,6.4-23.9,2.8-23.9,2.8s1.3-2,8.2-4.9c-7.2-0.4-16.3,2-18.9,3.4
			c-3.4,1.8-8.3,2.7-11.5,0.8c-7.4-4.3-13.8-2.7-13.8-2.7c6.3,4.4-4.3,5.4-6,5.3s-1.6-0.1-8.8-1.4s-8.4,1.1-13.1,0.6
			c-4.7-0.5-7.9-2.7-12.6-0.9c2.2,1.7-4.7,6.2-7.8,2s-12.9-2.2-12.9-2.2c3.3,1,3.9,1.7,2.5,4c-1.4,0.1-9-2.6-14.8-2.1
			c1,1.1-1.6,2.5-1.6,2.5s-3.1-1.7-1.7-4.4c-2.6-0.1-5.2,0.4-7.4,1.7c0,0-2.2-3.5,3.1-5.9c-7.1-2.5-13.6,7-13.6,7
			c-0.9-2.8-9-6.2-14.9-5.6c5.1,6.4-23.9,2.8-23.9,2.8s1.3-2,8.2-4.9c-7.2-0.4-16.3,2-18.9,3.4c-3.4,1.8-8.2,2.3-11.5,0.8
			c-10.8-4.9-23.8-3.3-23.8-3.3c1.7,0.9,2.9,2.6,3,4.5c0,0-30.8,3-25.7-3.4c-5.9-0.6-14,2.8-14.9,5.6c0,0-6.5-9.5-13.6-7
			c5.3,2.4,3.1,5.9,3.1,5.9c-2.3-1.3-4.9-1.9-7.4-1.7c1.4,2.8-1.6,4.4-1.6,4.4s-2.5-1.4-1.6-2.5c-5.8-0.5-13.3,2.2-14.8,2.1
			c-1.4-2.4-0.7-3.1,2.5-4c0,0-9.7-1.9-12.9,2.3c-3.2,4.2-10-0.3-7.8-2c-4.7-1.7-8,0.5-12.6,0.9s-5.8-2-13.1-0.6s-7.1,1.3-8.8,1.4
			s-12.3-0.9-6-5.3c0,0-6.3-1.6-13.8,2.7c-3.2,1.8-8.1,1-11.5-0.8c-2.6-1.4-11.7-3.8-18.9-3.4c6.9,2.9,8.2,4.9,8.2,4.9
			s-29,3.6-23.9-2.8c-5.9-0.6-14,2.8-14.9,5.6c0,0-6.5-9.5-13.6-7c5.3,2.4,3.1,5.9,3.1,5.9c-2.3-1.3-4.9-1.9-7.5-1.7
			c1.5,2.8-1.7,4.4-1.7,4.4s-2.5-1.4-1.6-2.5c-5.8-0.5-13.3,2.2-14.8,2.1c-1.4-2.4-0.7-3.1,2.5-4c0,0-9.7-1.9-12.9,2.3
			c-3.2,4.2-10-0.3-7.8-2c-4.7-1.7-7.8,0.6-12.3,2c-5.9,1.9-4.7,0.2-12,1.5c-3.2,0.6-7.3,0.6-8.9-3.1c-3.4,0.8-5.8,3.8-10,2.9
			c-7.2-1.5-7.4-2-12-2.4s-7.9-2.7-12.6-0.9c2.2,1.7-4.7,6.2-7.8,2c-3.2-4.2-13-2.3-13-2.3c3.3,1,3.9,1.7,2.5,4
			c-1.5,0.1-9-2.6-14.8-2.1c1,1.1-1.6,2.5-1.6,2.5s-3.1-1.6-1.6-4.4c-2.6-0.1-5.2,0.4-7.5,1.7c0,0-2.2-3.5,3.1-5.9
			c-7.1-2.5-13.6,7-13.6,7c-0.8-2.8-9-6.2-14.9-5.6c5.1,6.4-23.9,2.8-23.9,2.8s1.3-2,8.2-4.9c-7.2-0.4-16.3,2-18.9,3.4
			c-3.4,1.8-8.3,2.7-11.5,0.8c-7.4-4.3-13.8-2.7-13.8-2.7c6.3,4.4-4.3,5.4-6,5.3c-1.7-0.1-1.5-0.1-8.8-1.4s-8.4,1.1-13.1,0.6
			C17,93,13.7,90.8,9,92.5c2.1,1.7-4.7,6.2-7.8,2c-0.3-0.4-0.6-1.1-1.2-1.1"/>
		<path id="grass-row-front-1_00000017509638469789204600000002911353131374564765_" class="st6" d="M1955.4,92.9
			c-1.7,0-5.9,0.9-6.9,0.9c-1.7-0.1-1.5-0.1-8.8-1.4c-7.3-1.3-8.4,1.1-13.1,0.6s-7.9-2.7-12.6-0.9c2.1,1.7-4.7,6.2-7.8,2
			s-12.9-2.3-12.9-2.3c3.3,1,3.9,1.7,2.5,4c-1.4,0.1-9-2.6-14.8-2.1c0.9,1.1-1.6,2.5-1.6,2.5s-3.1-1.7-1.6-4.4
			c-2.6-0.1-5.2,0.4-7.4,1.7c0,0-2.2-3.5,3.1-5.9c-7.1-2.5-13.6,7-13.6,7c-0.9-2.8-9-6.2-14.9-5.6c5.1,6.4-23.9,2.8-23.9,2.8
			s1.3-2,8.2-4.9c-7.2-0.4-16.3,2-18.9,3.4c-3.4,1.8-8.2,2.3-11.5,0.8c-10.8-4.9-23.8-3.3-23.8-3.3c1.7,0.9,2.9,2.6,3,4.5
			c0,0-30.8,3-25.7-3.4c-5.9-0.6-14,2.8-14.9,5.6c0,0-6.5-9.5-13.6-7c5.3,2.4,3.1,5.9,3.1,5.9c-2.3-1.3-4.9-1.9-7.4-1.7
			c1.4,2.8-1.6,4.4-1.6,4.4s-2.5-1.4-1.6-2.5c-5.8-0.5-13.3,2.2-14.8,2.1c-1.4-2.4-0.7-3.1,2.5-4c0,0-9.7-1.9-12.9,2.3
			c-3.2,4.2-10-0.3-7.8-2c-4.7-1.7-8,0.5-12.6,0.9c-4.6,0.4-5.8-2-13.1-0.6c-7.3,1.4-7.1,1.3-8.8,1.4s-12.3-0.9-6-5.3
			c0,0-6.4-1.6-13.8,2.7c-3.2,1.8-8.1,1-11.5-0.8c-2.7-1.4-11.7-3.8-18.9-3.4c6.9,3,8.2,4.9,8.2,4.9s-29,3.6-23.9-2.8
			c-5.9-0.6-14,2.8-14.9,5.6c0,0-6.5-9.5-13.6-7c5.3,2.4,3.1,5.9,3.1,5.9c-2.3-1.3-4.9-1.9-7.4-1.7c1.4,2.8-1.7,4.4-1.7,4.4
			s-2.5-1.4-1.6-2.5c-5.8-0.5-13.3,2.2-14.8,2.1c-1.4-2.4-0.7-3.1,2.5-4c0,0-9.7-1.9-12.9,2.3c-3.2,4.2-10-0.3-7.8-2
			c-4.7-1.7-7.8,0.6-12.3,2c-5.9,1.9-4.7,0.2-12,1.5c-3.2,0.6-7.3,0.6-8.9-3.1c-3.4,0.8-5.8,3.8-10.1,2.9c-7.2-1.5-7.4-2-12-2.4
			c-4.6-0.4-7.9-2.7-12.6-0.9c2.1,1.7-4.7,6.2-7.8,2s-12.9-2.3-12.9-2.3c3.3,1,3.9,1.7,2.5,4c-1.4,0.1-9-2.6-14.8-2.1
			c1,1.1-1.6,2.5-1.6,2.5s-3.1-1.7-1.6-4.4c-2.6-0.1-5.2,0.4-7.4,1.7c0,0-2.2-3.5,3.1-5.9c-7.1-2.5-13.6,7-13.6,7
			c-0.9-2.8-9-6.2-14.9-5.6c5.1,6.4-23.9,2.8-23.9,2.8s1.3-2,8.2-4.9c-7.2-0.4-16.3,2-18.9,3.4c-3.4,1.8-8.3,2.7-11.5,0.8
			c-7.4-4.3-13.8-2.7-13.8-2.7c6.3,4.4-4.3,5.4-6,5.3s-1.5-0.1-8.8-1.4c-7.3-1.3-8.4,1.1-13.1,0.6s-7.9-2.7-12.6-0.9
			c2.2,1.7-4.7,6.2-7.8,2s-12.9-2.3-12.9-2.3c3.3,1,3.9,1.7,2.5,4c-1.4,0.1-9-2.6-14.8-2.1c0.9,1.1-1.6,2.5-1.6,2.5
			s-3.1-1.7-1.7-4.4c-2.6-0.1-5.2,0.4-7.4,1.7c0,0-2.2-3.5,3.1-5.9c-7.1-2.5-13.6,7-13.6,7c-0.8-2.8-9-6.2-14.9-5.6
			c5.1,6.4-23.9,2.8-23.9,2.8s1.3-2,8.2-4.9c-7.2-0.4-16.3,2-18.9,3.4c-3.4,1.8-8.1,2.3-11.5,0.8c-11.1-4.9-24.1-3.3-24.1-3.3
			c3,1.6,1.4,5.1,1.4,5.1c-8.2,0.7-19.9,0.5-16.3-4c-5.9-0.6-14,2.8-14.9,5.6c0,0-6.5-9.5-13.6-7c5.3,2.4,3.1,5.9,3.1,5.9
			c-2.3-1.3-4.9-1.9-7.4-1.7c1.4,2.8-1.6,4.4-1.6,4.4s-2.5-1.4-1.6-2.5c-5.8-0.5-13.3,2.2-14.8,2.1c-1.4-2.4-0.7-3.1,2.5-4
			c0,0-9.7-1.9-12.9,2.3c-3.2,4.2-10-0.3-7.8-2c-4.7-1.7-8,0.5-12.6,0.9c-4.6,0.4-5.8-2-13.1-0.6c-7.3,1.4-7.1,1.3-8.8,1.4
			s-12.3-0.9-6-5.3c0,0-6.3-1.6-13.8,2.7c-3.2,1.8-8.1,1-11.5-0.8c-2.7-1.4-11.7-3.8-18.9-3.4c6.9,3,8.2,4.9,8.2,4.9
			s-29,3.6-23.9-2.8c-5.9-0.6-14,2.8-14.9,5.6c0,0-6.5-9.5-13.6-7c5.3,2.4,3.1,5.9,3.1,5.9c-2.3-1.3-4.9-1.9-7.4-1.7
			c1.4,2.8-1.7,4.4-1.7,4.4s-2.5-1.4-1.6-2.5c-5.8-0.5-13.3,2.2-14.8,2.1c-1.4-2.4-0.7-3.1,2.5-4c0,0-9.7-1.9-12.9,2.3
			c-3.2,4.2-10-0.3-7.8-2c-4.7-1.7-7.8,0.6-12.3,2c-5.9,1.9-4.7,0.2-12,1.5c-3.2,0.6-7.3,0.6-8.9-3.1c-3.4,0.8-5.8,3.8-10,2.9
			c-7.2-1.5-7.4-2-12-2.4s-7.9-2.7-12.6-0.9c2.2,1.7-4.7,6.2-7.8,2c-3.1-4.2-13-2.3-13-2.3c3.3,1,3.9,1.7,2.5,4
			c-1.4,0.1-9-2.6-14.8-2.1c1,1.1-1.6,2.5-1.6,2.5s-3.1-1.7-1.6-4.4c-2.6-0.1-5.2,0.4-7.4,1.7c0,0-2.2-3.5,3.1-5.9
			c-7.1-2.5-13.6,7-13.6,7c-0.9-2.8-9-6.2-14.9-5.6c5.1,6.4-23.9,2.8-23.9,2.8s1.3-2,8.2-4.9c-7.2-0.4-16.3,2-18.9,3.4
			c-3.4,1.8-8.3,2.7-11.5,0.8c-7.4-4.3-13.8-2.7-13.8-2.7c6.3,4.4-4.3,5.4-6,5.3s-1.6-0.1-8.8-1.4s-8.4,1.1-13.1,0.6
			c-4.7-0.5-7.9-2.7-12.6-0.9c2.2,1.7-4.7,6.2-7.8,2s-12.9-2.2-12.9-2.2c3.3,1,3.9,1.7,2.5,4c-1.4,0.1-9-2.6-14.8-2.1
			c1,1.1-1.6,2.5-1.6,2.5s-3.1-1.7-1.7-4.4c-2.6-0.1-5.2,0.4-7.4,1.7c0,0-2.2-3.5,3.1-5.9c-7.1-2.5-13.6,7-13.6,7
			c-0.9-2.8-9-6.2-14.9-5.6c5.1,6.4-23.9,2.8-23.9,2.8s1.3-2,8.2-4.9c-7.2-0.4-16.3,2-18.9,3.4c-3.4,1.8-8.2,2.3-11.5,0.8
			c-10.8-4.9-23.8-3.3-23.8-3.3c1.7,0.9,2.9,2.6,3,4.5c0,0-30.8,3-25.7-3.4c-5.9-0.6-14,2.8-14.9,5.6c0,0-6.5-9.5-13.6-7
			c5.3,2.4,3.1,5.9,3.1,5.9c-2.3-1.3-4.9-1.9-7.4-1.7c1.4,2.8-1.6,4.4-1.6,4.4s-2.5-1.4-1.6-2.5c-5.8-0.5-13.3,2.2-14.8,2.1
			c-1.4-2.4-0.7-3.1,2.5-4c0,0-9.7-1.9-12.9,2.3c-3.2,4.2-10-0.3-7.8-2c-4.7-1.7-8,0.5-12.6,0.9s-5.8-2-13.1-0.6s-7.1,1.3-8.8,1.4
			s-12.3-0.9-6-5.3c0,0-6.3-1.6-13.8,2.7c-3.2,1.8-8.1,1-11.5-0.8c-2.6-1.4-11.7-3.8-18.9-3.4c6.9,2.9,8.2,4.9,8.2,4.9
			s-29,3.6-23.9-2.8c-5.9-0.6-14,2.8-14.9,5.6c0,0-6.5-9.5-13.6-7c5.3,2.4,3.1,5.9,3.1,5.9c-2.3-1.3-4.9-1.9-7.5-1.7
			c1.5,2.8-1.7,4.4-1.7,4.4s-2.5-1.4-1.6-2.5c-5.8-0.5-13.3,2.2-14.8,2.1c-1.4-2.4-0.7-3.1,2.5-4c0,0-9.7-1.9-12.9,2.3
			c-3.2,4.2-10-0.3-7.8-2c-4.7-1.7-7.8,0.6-12.3,2c-5.9,1.9-4.7,0.2-12,1.5c-3.2,0.6-7.3,0.6-8.9-3.1c-3.4,0.8-5.8,3.8-10,2.9
			c-7.2-1.5-7.4-2-12-2.4s-7.9-2.7-12.6-0.9c2.2,1.7-4.7,6.2-7.8,2c-3.2-4.2-13-2.3-13-2.3c3.3,1,3.9,1.7,2.5,4
			c-1.5,0.1-9-2.6-14.8-2.1c1,1.1-1.6,2.5-1.6,2.5s-3.1-1.6-1.6-4.4c-2.6-0.1-5.2,0.4-7.5,1.7c0,0-2.2-3.5,3.1-5.9
			c-7.1-2.5-13.6,7-13.6,7c-0.8-2.8-9-6.2-14.9-5.6c5.1,6.4-23.9,2.8-23.9,2.8s1.3-2,8.2-4.9c-7.2-0.4-16.3,2-18.9,3.4
			c-3.4,1.8-8.3,2.7-11.5,0.8c-7.4-4.3-13.8-2.7-13.8-2.7c6.3,4.4-4.3,5.4-6,5.3c-1.7-0.1-1.5-0.1-8.8-1.4s-8.4,1.1-13.1,0.6
			C17,92.5,13.7,90.3,9,92c2.1,1.7-4.7,6.2-7.8,2c-0.3-0.4-0.6-1.1-1.2-1.1"/>
		<path id="grass-row-front-1_00000067931517490804126900000008696706388562075577_" class="st6" d="M1955.4,92.4"/>
		
			<line id="grass-row-front-1_00000026870066902417430810000006082615028403538071_" class="st6" x1="0" y1="343.6" x2="1955.4" y2="343.6"/>
	</g>
</g>
<g id="copy">
</g>
<g id="objects" class="st7">
	<g id="Fireplace" class="st8">
		<ellipse id="sand" class="st3" cx="1587.3" cy="40.9" rx="39.1" ry="11.1"/>
		<g id="rocks-back">
			<path class="st9" d="M1593.6,31.8c1.1-1.1,1-6.7-4.3-7.5c-4.4-0.7-7.8,4.5-6.7,6.9S1591.8,33.7,1593.6,31.8z"/>
			<path class="st10" d="M1591.8,27.5c0,1.2-1.5,0.6-3.3,0.6c-1.8,0-3.3,0.6-3.3-0.6s1.5-2.2,3.3-2.2
				C1590.3,25.3,1591.8,26.3,1591.8,27.5z"/>
			<path class="st11" d="M1584,32.8c1.1-1.1,1-6.7-4.3-7.5c-4.3-0.7-7.8,4.5-6.7,6.9C1574.1,34.7,1582.2,34.7,1584,32.8z"/>
			<path class="st10" d="M1582.2,28.5c0,1.2-1.5,0.6-3.3,0.6s-3.3,0.6-3.3-0.6s1.5-2.2,3.3-2.2S1582.2,27.3,1582.2,28.5z"/>
			<path class="st11" d="M1602.8,32.9c1.1-1.1,1-6.7-4.3-7.5c-4.3-0.7-7.8,4.5-6.7,6.9C1593,34.7,1601,34.7,1602.8,32.9z"/>
			<path class="st10" d="M1601.1,28.5c0,1.2-1.5,0.6-3.3,0.6s-3.3,0.6-3.3-0.6s1.5-2.2,3.3-2.2S1601.1,27.3,1601.1,28.5z"/>
			<path class="st11" d="M1611.2,34.2c1.1-1.1,1-6.7-4.3-7.5c-4.3-0.7-7.8,4.5-6.7,6.9C1601.3,36,1609.3,36.1,1611.2,34.2z"/>
			<path class="st10" d="M1609.4,29.9c0,1.2-1.5,0.6-3.3,0.6s-3.3,0.6-3.3-0.6s1.5-2.2,3.3-2.2S1609.4,28.6,1609.4,29.9z"/>
			<path class="st9" d="M1618.9,34.7c1.1-1.1,1-6.7-4.3-7.5c-4.3-0.7-7.8,4.5-6.7,6.9C1609.1,36.6,1617.1,36.6,1618.9,34.7z"/>
			<path class="st10" d="M1617.1,30.4c0,1.2-1.5,0.6-3.3,0.6c-1.8,0-3.3,0.6-3.3-0.6s1.5-2.2,3.3-2.2
				C1615.6,28.2,1617.1,29.2,1617.1,30.4z"/>
			<path class="st11" d="M1626.4,37.3c1.1-1.1,1-6.7-4.3-7.5c-4.3-0.7-7.8,4.5-6.7,6.9C1616.6,39.1,1624.6,39.1,1626.4,37.3z"/>
			<path class="st10" d="M1624.6,32.9c0,1.2-1.5,0.6-3.3,0.6c-1.8,0-3.3,0.6-3.3-0.6s1.5-2.2,3.3-2.2
				C1623.1,30.7,1624.6,31.7,1624.6,32.9z"/>
			<path class="st9" d="M1574.4,33.8c1.1-1.1,1-6.7-4.3-7.5c-4.3-0.7-7.8,4.5-6.7,6.9C1564.6,35.6,1572.6,35.7,1574.4,33.8z"/>
			<path class="st10" d="M1572.7,29.5c0,1.2-1.5,0.6-3.3,0.6s-3.3,0.6-3.3-0.6s1.5-2.2,3.3-2.2S1572.7,28.2,1572.7,29.5z"/>
			<path class="st11" d="M1565.2,35.7c1-1,0.9-6-4-6.8c-3.9-0.6-7.1,4.1-6,6.3C1556.3,37.4,1563.5,37.4,1565.2,35.7z"/>
			<path class="st10" d="M1563.5,31.7c0,1.1-1.4,0.6-3,0.6c-1.7,0-3,0.6-3-0.6s1.3-2,3-2C1562.2,29.7,1563.5,30.6,1563.5,31.7z"/>
			<path class="st11" d="M1557.9,38.2c1-1,0.9-6-4-6.8c-3.9-0.6-7.1,4.1-6,6.3C1549,39.9,1556.2,39.9,1557.9,38.2z"/>
			<path class="st10" d="M1556.3,34.3c0,1.1-1.4,0.6-3,0.6c-1.7,0-3,0.6-3-0.6s1.3-2,3-2C1554.9,32.3,1556.3,33.2,1556.3,34.3z"/>
		</g>
		<g id="firewood">
			<path class="st12" d="M1588,46c-3,0.2-2.8-1.5-2.8-1.5l0.7-41.8c1.3-0.9,3-0.9,4.3,0c0,8.5,0,42.2,0,42.2S1590.2,45.9,1588,46z"
				/>
			<path class="st3" d="M1595.4,44.2c-3-0.8-5.7-0.5-8,1.8c-2.5-2.6-4.9-2.9-6.1-2.6l-0.6,2.1l5.1,2.5l4.7-0.2l3.8-1.6l2-1.4
				L1595.4,44.2z"/>
			<path class="st13" d="M1592.9,44.2c-1.9-0.6-3.9,0-5.2,1.4c-1.6-1.9-3.5-1.6-4.9-1.4"/>
			<path class="st12" d="M1602.8,44.4c-2.5,1.8-3.2,0.2-3.2,0.2l-21.8-35.7c0.6-1.5,2.1-2.4,3.6-2.3c4.5,7.2,22.6,35.7,22.6,35.7
				S1604.6,43.1,1602.8,44.4z"/>
			<path class="st3" d="M1594,44.5c2.8-1.4,5.5-1.7,8.2,0c1.9-3.1,4.2-3.9,5.4-3.8l1,1.9l-4.4,3.6l-4.6,0.8l-4-0.8l-2.2-1L1594,44.5
				z"/>
			<path class="st13" d="M1595.9,43.7c2.1-0.6,4.4-0.3,6.3,0.8c1.2-1.7,2.8-3,4.1-3.3"/>
			<path class="st12" d="M1572.2,43.7c-2.6-1.6-1.4-2.8-1.4-2.8L1595.4,7c1.6,0,3,1,3.5,2.5c-4.9,7-24.3,34.6-24.3,34.6
				S1574.1,44.9,1572.2,43.7z"/>
			<path class="st3" d="M1580.5,43.9c-2.8-1.4-5.5-1.7-8.2,0c-1.9-3.1-4.2-3.9-5.4-3.8l-1,1.9l4.5,3.6l4.7,0.8l4-0.8l2.2-1
				L1580.5,43.9z"/>
			<path class="st13" d="M1579.5,43.6c-2.5-1.3-5.5-0.5-7.1,0.3c-1-1.9-2.1-2.8-4.9-3.1"/>
		</g>
		<g id="rocks-front">
			<path class="st11" d="M1631.2,42.9c1-1.1,0.9-6.7-3.9-7.5c-3.9-0.7-7,4.5-6,6.9S1629.5,44.7,1631.2,42.9z"/>
			<path class="st10" d="M1629.6,38.6c0,1.2-1.3,0.6-3,0.6c-1.7,0-3,0.6-3-0.6s1.3-2.2,3-2.2C1628.2,36.3,1629.6,37.3,1629.6,38.6z"
				/>
			<path class="st9" d="M1629.2,49.1c1-1.1,2.6-6.8-5-7.1c-4.1-0.1-6.3,4.1-5.3,6.5C1620,51,1627.5,50.9,1629.2,49.1z"/>
			<path class="st10" d="M1628,45.2c0,1.2-1.4,0.6-3.1,0.6c-1.7,0-3.1,0.6-3.1-0.6s1.4-2.2,3.1-2.2C1626.6,42.9,1628,43.9,1628,45.2
				z"/>
			<path class="st11" d="M1624.6,52.6c1.2-1.1,0-6.7-6.1-7.5c-4.9-0.7-7.8,4.5-6.4,6.9S1622.5,54.5,1624.6,52.6z"/>
			<path class="st10" d="M1621.6,48.3c0,1.2-1.7,0.6-3.8,0.6c-2.1,0-3.8,0.6-3.8-0.6s1.7-2.2,3.8-2.2
				C1619.9,46.1,1621.6,47.1,1621.6,48.3z"/>
			<path class="st11" d="M1615,54.4c1.4-1.3,1.3-7.7-5.7-8.6c-5.7-0.8-10.2,5.2-8.7,8S1612.6,56.5,1615,54.4z"/>
			<path class="st10" d="M1612.6,49.4c0,1.4-2,0.7-4.4,0.7s-4.4,0.7-4.4-0.7s2-2.6,4.4-2.6S1612.6,48,1612.6,49.4z"/>
			<path class="st9" d="M1551.9,44.3c0.9-1.3,0.8-7.7-3.5-8.6c-3.5-0.8-6.2,5.2-5.3,8C1544.1,46.5,1550.5,46.5,1551.9,44.3z"/>
			<path class="st10" d="M1550.5,39.3c0,1.4-1.2,0.7-2.7,0.7c-1.5,0-2.7,0.7-2.7-0.7c0.1-1.5,1.4-2.6,2.8-2.5
				C1549.4,36.9,1550.4,38,1550.5,39.3z"/>
			<path class="st9" d="M1555.1,49.7c0.9-1.3,0.9-7.7-3.8-8.6c-3.8-0.8-6.9,5.2-5.8,8S1553.5,51.9,1555.1,49.7z"/>
			<path class="st10" d="M1553.5,44.8c0,1.4-1.3,0.7-2.9,0.7s-2.9,0.7-2.9-0.7c0.2-1.6,1.6-2.8,3.3-2.6
				C1552.3,42.4,1553.4,43.4,1553.5,44.8L1553.5,44.8z"/>
			<path class="st11" d="M1565.8,53.3c1.4-1.3,1.3-7.7-5.7-8.6c-5.7-0.8-10.2,5.2-8.7,8S1563.4,55.4,1565.8,53.3z"/>
			<path class="st10" d="M1563.4,48.3c0,1.4-2,0.7-4.4,0.7c-2.4,0-4.4,0.7-4.4-0.7s2-2.6,4.4-2.6
				C1561.4,45.7,1563.4,46.9,1563.4,48.3z"/>
			<path class="st9" d="M1577.1,55.5c1.4-1.3,1.3-7.7-5.7-8.6c-5.7-0.8-10.2,5.2-8.7,8S1574.7,57.7,1577.1,55.5z"/>
			<path class="st10" d="M1574.8,50.6c0,1.4-2,0.7-4.4,0.7c-2.4,0-4.4,0.7-4.4-0.7s2-2.6,4.4-2.6C1572.8,48,1574.8,49.1,1574.8,50.6
				z"/>
			<path class="st9" d="M1603.3,55.9c1.4-1.4,1.3-8.4-5.7-9.4c-5.7-0.8-10.2,5.7-8.7,8.7S1600.9,58.2,1603.3,55.9z"/>
			<path class="st10" d="M1601,50.4c0,1.5-1.9,0.8-4.4,0.8s-4.4,0.8-4.4-0.8s1.9-2.8,4.4-2.8S1601,48.9,1601,50.4z"/>
			<path class="st11" d="M1590.8,57.6c1.5-1.2,1-8-6-9.4c-5.6-1.1-10.8,5.7-9.4,8.7C1576.7,59.8,1588.3,59.7,1590.8,57.6z"/>
			<path class="st10" d="M1587.9,52.1c-0.1,1.5-2,0.6-4.4,0.5c-2.4-0.1-4.4,0.5-4.3-0.9s2.1-2.6,4.5-2.5S1588,50.6,1587.9,52.1z"/>
		</g>
	</g>
</g>
</svg>
